const unsigned char PROGMEM file_data[] = {
    0x4d, 0x54, 0x68, 0x64, 0x00, 0x00, 0x00, 0x06, 0x00, 0x01,
    0x00, 0x11, 0x00, 0x78, 0x4d, 0x54, 0x72, 0x6b, 0x00, 0x00,
    0x01, 0x86, 0x00, 0xff, 0x03, 0x04, 0x87, 0xf8, 0xb8, 0xe8,
    0x00, 0xff, 0x02, 0x0c, 0x43, 0x61, 0x69, 0x20, 0x57, 0x65,
    0x6e, 0x20, 0x50, 0x69, 0x6e, 0x67, 0x00, 0xff, 0x01, 0x05,
    0xc2, 0x99, 0xb6, 0xfa, 0x0a, 0x00, 0xff, 0x01, 0x03, 0x20,
    0x20, 0x0a, 0x00, 0xf0, 0x08, 0x43, 0x10, 0x4c, 0x00, 0x00,
    0x7e, 0x00, 0xf7, 0x00, 0xb0, 0x07, 0xff, 0x00, 0xb1, 0x07,
    0xff, 0x00, 0xb2, 0x07, 0xff, 0x00, 0xb3, 0x07, 0xff, 0x00,
    0xb4, 0x07, 0xff, 0x00, 0xb5, 0x07, 0xff, 0x00, 0xb6, 0x07,
    0xff, 0x00, 0xb7, 0x07, 0xff, 0x00, 0xb8, 0x07, 0xff, 0x00,
    0xb9, 0x07, 0xff, 0x00, 0xba, 0x07, 0xff, 0x00, 0xbb, 0x07,
    0xff, 0x00, 0xbc, 0x07, 0xff, 0x00, 0xbd, 0x07, 0xff, 0x00,
    0xbe, 0x07, 0xff, 0x00, 0xbf, 0x07, 0xff, 0x01, 0xf0, 0x08,
    0x43, 0x10, 0x4c, 0x02, 0x01, 0x56, 0x00, 0xf7, 0x00, 0xf0,
    0x08, 0x43, 0x10, 0x4c, 0x02, 0x01, 0x5a, 0x01, 0xf7, 0x00,
    0xf0, 0x08, 0x43, 0x10, 0x4c, 0x08, 0x00, 0x14, 0x7f, 0xf7,
    0x00, 0xf0, 0x08, 0x43, 0x10, 0x4c, 0x08, 0x01, 0x14, 0x7f,
    0xf7, 0x00, 0xf0, 0x08, 0x43, 0x10, 0x4c, 0x08, 0x02, 0x14,
    0x7f, 0xf7, 0x00, 0xf0, 0x08, 0x43, 0x10, 0x4c, 0x08, 0x03,
    0x14, 0x7f, 0xf7, 0x00, 0xf0, 0x08, 0x43, 0x10, 0x4c, 0x08,
    0x04, 0x14, 0x7f, 0xf7, 0x00, 0xf0, 0x08, 0x43, 0x10, 0x4c,
    0x08, 0x05, 0x14, 0x7f, 0xf7, 0x00, 0xf0, 0x08, 0x43, 0x10,
    0x4c, 0x08, 0x06, 0x14, 0x7f, 0xf7, 0x00, 0xf0, 0x08, 0x43,
    0x10, 0x4c, 0x08, 0x07, 0x14, 0x7f, 0xf7, 0x00, 0xf0, 0x08,
    0x43, 0x10, 0x4c, 0x08, 0x08, 0x14, 0x7f, 0xf7, 0x00, 0xf0,
    0x08, 0x43, 0x10, 0x4c, 0x08, 0x09, 0x14, 0x7f, 0xf7, 0x00,
    0xf0, 0x08, 0x43, 0x10, 0x4c, 0x08, 0x0a, 0x14, 0x7f, 0xf7,
    0x00, 0xf0, 0x08, 0x43, 0x10, 0x4c, 0x08, 0x0b, 0x14, 0x7f,
    0xf7, 0x00, 0xf0, 0x08, 0x43, 0x10, 0x4c, 0x08, 0x0c, 0x14,
    0x7f, 0xf7, 0x00, 0xf0, 0x08, 0x43, 0x10, 0x4c, 0x08, 0x0d,
    0x14, 0x7f, 0xf7, 0x00, 0xf0, 0x08, 0x43, 0x10, 0x4c, 0x08,
    0x0e, 0x14, 0x7f, 0xf7, 0x00, 0xf0, 0x08, 0x43, 0x10, 0x4c,
    0x08, 0x0f, 0x14, 0x7f, 0xf7, 0x00, 0xf0, 0x08, 0x43, 0x10,
    0x4c, 0x02, 0x01, 0x0c, 0x00, 0xf7, 0x00, 0xf0, 0x09, 0x43,
    0x10, 0x4c, 0x02, 0x01, 0x40, 0x03, 0x00, 0xf7, 0x00, 0xf0,
    0x08, 0x43, 0x10, 0x4c, 0x02, 0x01, 0x56, 0x40, 0xf7, 0x00,
    0xf0, 0x08, 0x43, 0x10, 0x4c, 0x02, 0x01, 0x56, 0x4d, 0xf7,
    0x00, 0xff, 0x58, 0x04, 0x02, 0x02, 0x18, 0x08, 0x00, 0xff,
    0x59, 0x02, 0x01, 0x00, 0x00, 0xff, 0x51, 0x03, 0x09, 0x27,
    0xc0, 0x01, 0xff, 0x51, 0x03, 0x09, 0x89, 0x68, 0x00, 0xff,
    0x2f, 0x00, 0x4d, 0x54, 0x72, 0x6b, 0x00, 0x00, 0x02, 0x3d,
    0x00, 0xff, 0x03, 0x07, 0x50, 0x69, 0x63, 0x63, 0x6f, 0x6c,
    0x6f, 0x7a, 0xc0, 0x30, 0x01, 0xb0, 0x0a, 0x26, 0x75, 0x5b,
    0x76, 0x8c, 0x54, 0x90, 0x4a, 0x75, 0x19, 0x4a, 0x00, 0x24,
    0x4f, 0x75, 0x81, 0x11, 0x4f, 0x00, 0x22, 0x4f, 0x6e, 0x12,
    0x4f, 0x00, 0x2c, 0x4f, 0x6e, 0x3d, 0x4f, 0x00, 0x1a, 0x4f,
    0x75, 0x12, 0x4f, 0x00, 0x0e, 0x4a, 0x75, 0x2a, 0x4a, 0x00,
    0x10, 0x4c, 0x75, 0x11, 0x4c, 0x00, 0x0d, 0x4e, 0x67, 0x10,
    0x4e, 0x00, 0x0e, 0x4f, 0x6e, 0x4c, 0x4f, 0x00, 0x2c, 0x4f,
    0x75, 0x44, 0x4f, 0x00, 0x72, 0x53, 0x75, 0x18, 0x53, 0x00,
    0x25, 0x4f, 0x75, 0x2b, 0x4f, 0x00, 0x0f, 0x51, 0x61, 0x13,
    0x51, 0x00, 0x0b, 0x53, 0x6e, 0x11, 0x53, 0x00, 0x0e, 0x56,
    0x75, 0x58, 0x56, 0x00, 0x1f, 0x56, 0x75, 0x45, 0x56, 0x00,
    0x34, 0x53, 0x75, 0x40, 0x53, 0x00, 0x18, 0x53, 0x6e, 0x15,
    0x53, 0x00, 0x0c, 0x4f, 0x75, 0x42, 0x4f, 0x00, 0x16, 0x53,
    0x75, 0x13, 0x53, 0x00, 0x0d, 0x56, 0x75, 0x3d, 0x56, 0x00,
    0x1c, 0x53, 0x75, 0x14, 0x53, 0x00, 0x0b, 0x51, 0x75, 0x4f,
    0x51, 0x00, 0x27, 0x51, 0x75, 0x81, 0x0a, 0x51, 0x00, 0x67,
    0x58, 0x67, 0x53, 0x58, 0x00, 0x25, 0x56, 0x67, 0x58, 0x56,
    0x00, 0x1f, 0x51, 0x75, 0x5b, 0x51, 0x00, 0x1f, 0x53, 0x78,
    0x2f, 0x53, 0x00, 0x49, 0x56, 0x75, 0x18, 0x56, 0x00, 0x21,
    0x53, 0x75, 0x1f, 0x53, 0x00, 0x5b, 0x56, 0x6e, 0x1b, 0x56,
    0x00, 0x20, 0x53, 0x78, 0x28, 0x53, 0x00, 0x13, 0x51, 0x61,
    0x13, 0x51, 0x00, 0x0e, 0x53, 0x53, 0x15, 0x53, 0x00, 0x09,
    0x4f, 0x75, 0x6b, 0x4f, 0x00, 0x0b, 0x53, 0x75, 0x81, 0x2b,
    0x53, 0x00, 0x46, 0x4a, 0x46, 0x3b, 0x4a, 0x00, 0x1d, 0x4c,
    0x4c, 0x15, 0x4c, 0x00, 0x09, 0x4f, 0x4e, 0x17, 0x4f, 0x00,
    0x28, 0x4f, 0x52, 0x15, 0x4f, 0x00, 0x25, 0x53, 0x55, 0x3d,
    0x53, 0x00, 0x1d, 0x53, 0x5a, 0x14, 0x53, 0x00, 0x09, 0x56,
    0x5c, 0x18, 0x56, 0x00, 0x26, 0x56, 0x60, 0x18, 0x56, 0x00,
    0x22, 0x51, 0x78, 0x19, 0x51, 0x00, 0x24, 0x51, 0x6e, 0x11,
    0x51, 0x00, 0x0c, 0x51, 0x6e, 0x13, 0x51, 0x00, 0x0d, 0x4c,
    0x78, 0x5a, 0x4c, 0x00, 0x1e, 0x51, 0x75, 0x81, 0x13, 0x51,
    0x00, 0x21, 0x4a, 0x75, 0x19, 0x4a, 0x00, 0x23, 0x4f, 0x75,
    0x81, 0x0f, 0x4f, 0x00, 0x23, 0x4f, 0x6e, 0x1c, 0x4f, 0x00,
    0x21, 0x53, 0x78, 0x81, 0x10, 0x53, 0x00, 0x26, 0x53, 0x6b,
    0x19, 0x53, 0x00, 0x21, 0x56, 0x71, 0x33, 0x56, 0x00, 0x09,
    0x62, 0x60, 0x0d, 0x62, 0x00, 0x11, 0x62, 0x60, 0x0c, 0x62,
    0x00, 0x12, 0x62, 0x62, 0x0c, 0x62, 0x00, 0x12, 0x62, 0x64,
    0x0c, 0x62, 0x00, 0x12, 0x62, 0x65, 0x0c, 0x62, 0x00, 0x12,
    0x62, 0x66, 0x0b, 0x62, 0x00, 0x13, 0x4f, 0x6e, 0x41, 0x4f,
    0x00, 0x18, 0x53, 0x6e, 0x12, 0x53, 0x00, 0x0d, 0x56, 0x75,
    0x19, 0x56, 0x00, 0x23, 0x56, 0x6e, 0x16, 0x56, 0x00, 0x28,
    0x58, 0x6e, 0x61, 0x58, 0x00, 0x14, 0x56, 0x6e, 0x31, 0x56,
    0x00, 0x48, 0x53, 0x75, 0x3c, 0x53, 0x00, 0x1f, 0x4f, 0x67,
    0x13, 0x4f, 0x00, 0x0c, 0x56, 0x6e, 0x13, 0x56, 0x00, 0x14,
    0x56, 0x67, 0x11, 0x56, 0x00, 0x16, 0x56, 0x6e, 0x14, 0x56,
    0x00, 0x15, 0x53, 0x75, 0x4e, 0x53, 0x00, 0x29, 0x4f, 0x67,
    0x3b, 0x4f, 0x00, 0x3e, 0x4a, 0x78, 0x56, 0x4a, 0x00, 0x20,
    0x4f, 0x75, 0x35, 0x4f, 0x00, 0x45, 0x53, 0x75, 0x39, 0x53,
    0x00, 0x21, 0x4f, 0x67, 0x15, 0x4f, 0x00, 0x07, 0x56, 0x75,
    0x11, 0x56, 0x00, 0x19, 0x56, 0x75, 0x0f, 0x56, 0x00, 0x18,
    0x56, 0x6e, 0x13, 0x56, 0x00, 0x16, 0x53, 0x78, 0x61, 0x53,
    0x00, 0x18, 0x4f, 0x75, 0x2f, 0x4f, 0x00, 0x48, 0x4a, 0x75,
    0x57, 0x4a, 0x00, 0x20, 0x4f, 0x75, 0x3b, 0x4f, 0x00, 0x3c,
    0x56, 0x6e, 0x58, 0x56, 0x00, 0x22, 0x5b, 0x78, 0x39, 0x5b,
    0x00, 0x3f, 0x56, 0x75, 0x60, 0x56, 0x00, 0x17, 0x5b, 0x6e,
    0x2d, 0x5b, 0x00, 0x4c, 0x5b, 0x75, 0x78, 0x5b, 0x00, 0x00,
    0xff, 0x2f, 0x00, 0x4d, 0x54, 0x72, 0x6b, 0x00, 0x00, 0x02,
    0x1d, 0x00, 0xff, 0x03, 0x0a, 0x43, 0x6c, 0x61, 0x72, 0x69,
    0x6e, 0x65, 0x74, 0x20, 0x31, 0x7f, 0xc1, 0x30, 0x01, 0xb1,
    0x0a, 0x15, 0x70, 0x5b, 0x6d, 0x8c, 0x54, 0x91, 0x4a, 0x75,
    0x19, 0x4a, 0x00, 0x22, 0x4f, 0x75, 0x81, 0x11, 0x4f, 0x00,
    0x24, 0x4f, 0x6e, 0x12, 0x4f, 0x00, 0x2a, 0x4f, 0x6e, 0x3d,
    0x4f, 0x00, 0x1d, 0x4f, 0x75, 0x12, 0x4f, 0x00, 0x0c, 0x4a,
    0x75, 0x2a, 0x4a, 0x00, 0x11, 0x4c, 0x75, 0x11, 0x4c, 0x00,
    0x0e, 0x4e, 0x67, 0x10, 0x4e, 0x00, 0x0f, 0x4f, 0x6e, 0x4c,
    0x4f, 0x00, 0x2d, 0x4f, 0x75, 0x44, 0x4f, 0x00, 0x70, 0x53,
    0x75, 0x18, 0x53, 0x00, 0x22, 0x4f, 0x75, 0x2b, 0x4f, 0x00,
    0x11, 0x51, 0x61, 0x13, 0x51, 0x00, 0x0a, 0x53, 0x6e, 0x11,
    0x53, 0x00, 0x10, 0x56, 0x75, 0x58, 0x56, 0x00, 0x1f, 0x56,
    0x75, 0x45, 0x56, 0x00, 0x32, 0x53, 0x75, 0x40, 0x53, 0x00,
    0x1b, 0x53, 0x6e, 0x15, 0x53, 0x00, 0x09, 0x4f, 0x75, 0x42,
    0x4f, 0x00, 0x18, 0x53, 0x75, 0x13, 0x53, 0x00, 0x0c, 0x56,
    0x75, 0x3d, 0x56, 0x00, 0x1c, 0x53, 0x75, 0x14, 0x53, 0x00,
    0x08, 0x51, 0x75, 0x4f, 0x51, 0x00, 0x29, 0x51, 0x75, 0x81,
    0x0a, 0x51, 0x00, 0x68, 0x58, 0x67, 0x53, 0x58, 0x00, 0x25,
    0x56, 0x67, 0x58, 0x56, 0x00, 0x20, 0x51, 0x75, 0x5b, 0x51,
    0x00, 0x1b, 0x53, 0x78, 0x2f, 0x53, 0x00, 0x4b, 0x56, 0x75,
    0x18, 0x56, 0x00, 0x23, 0x53, 0x75, 0x1f, 0x53, 0x00, 0x5b,
    0x56, 0x6e, 0x1b, 0x56, 0x00, 0x21, 0x53, 0x78, 0x28, 0x53,
    0x00, 0x13, 0x51, 0x61, 0x13, 0x51, 0x00, 0x09, 0x53, 0x53,
    0x15, 0x53, 0x00, 0x09, 0x4f, 0x75, 0x6b, 0x4f, 0x00, 0x0e,
    0x53, 0x75, 0x81, 0x2b, 0x53, 0x00, 0x45, 0x4a, 0x46, 0x3b,
    0x4a, 0x00, 0x20, 0x4c, 0x4c, 0x15, 0x4c, 0x00, 0x07, 0x4f,
    0x4e, 0x17, 0x4f, 0x00, 0x26, 0x4f, 0x52, 0x15, 0x4f, 0x00,
    0x26, 0x53, 0x55, 0x3d, 0x53, 0x00, 0x20, 0x53, 0x5a, 0x14,
    0x53, 0x00, 0x09, 0x56, 0x5c, 0x18, 0x56, 0x00, 0x22, 0x56,
    0x60, 0x18, 0x56, 0x00, 0x24, 0x51, 0x78, 0x19, 0x51, 0x00,
    0x25, 0x51, 0x6e, 0x11, 0x51, 0x00, 0x0e, 0x51, 0x6e, 0x13,
    0x51, 0x00, 0x0a, 0x4c, 0x78, 0x5a, 0x4c, 0x00, 0x1f, 0x51,
    0x75, 0x81, 0x13, 0x51, 0x00, 0x1e, 0x4a, 0x75, 0x19, 0x4a,
    0x00, 0x25, 0x4f, 0x75, 0x81, 0x0f, 0x4f, 0x00, 0x25, 0x4f,
    0x6e, 0x1c, 0x4f, 0x00, 0x20, 0x53, 0x78, 0x81, 0x10, 0x53,
    0x00, 0x25, 0x53, 0x75, 0x19, 0x53, 0x00, 0x20, 0x56, 0x75,
    0x81, 0x25, 0x56, 0x00, 0x4e, 0x4f, 0x6e, 0x41, 0x4f, 0x00,
    0x19, 0x53, 0x6e, 0x12, 0x53, 0x00, 0x0b, 0x56, 0x75, 0x19,
    0x56, 0x00, 0x24, 0x56, 0x6e, 0x16, 0x56, 0x00, 0x25, 0x58,
    0x6e, 0x61, 0x58, 0x00, 0x15, 0x56, 0x6e, 0x31, 0x56, 0x00,
    0x4a, 0x53, 0x75, 0x3c, 0x53, 0x00, 0x1d, 0x4f, 0x67, 0x13,
    0x4f, 0x00, 0x0a, 0x56, 0x6e, 0x13, 0x56, 0x00, 0x14, 0x56,
    0x67, 0x11, 0x56, 0x00, 0x19, 0x56, 0x6e, 0x14, 0x56, 0x00,
    0x15, 0x53, 0x75, 0x4e, 0x53, 0x00, 0x29, 0x4f, 0x67, 0x3b,
    0x4f, 0x00, 0x3e, 0x4a, 0x78, 0x56, 0x4a, 0x00, 0x20, 0x4f,
    0x75, 0x35, 0x4f, 0x00, 0x45, 0x53, 0x75, 0x39, 0x53, 0x00,
    0x20, 0x4f, 0x67, 0x15, 0x4f, 0x00, 0x09, 0x56, 0x75, 0x11,
    0x56, 0x00, 0x15, 0x56, 0x75, 0x0f, 0x56, 0x00, 0x1c, 0x56,
    0x6e, 0x13, 0x56, 0x00, 0x14, 0x53, 0x78, 0x61, 0x53, 0x00,
    0x18, 0x4f, 0x75, 0x2f, 0x4f, 0x00, 0x49, 0x4a, 0x75, 0x57,
    0x4a, 0x00, 0x1f, 0x4f, 0x75, 0x3b, 0x4f, 0x00, 0x3c, 0x4a,
    0x6e, 0x58, 0x4a, 0x00, 0x20, 0x4f, 0x78, 0x39, 0x4f, 0x00,
    0x40, 0x4a, 0x75, 0x60, 0x4a, 0x00, 0x1a, 0x4f, 0x6e, 0x2d,
    0x4f, 0x00, 0x4b, 0x4f, 0x75, 0x78, 0x4f, 0x00, 0x00, 0xff,
    0x2f, 0x00, 0x4d, 0x54, 0x72, 0x6b, 0x00, 0x00, 0x02, 0x36,
    0x00, 0xff, 0x03, 0x0a, 0x43, 0x6c, 0x61, 0x72, 0x69, 0x6e,
    0x65, 0x74, 0x20, 0x32, 0x81, 0x04, 0xc2, 0x31, 0x01, 0xb2,
    0x0a, 0x1e, 0x6b, 0x5b, 0x72, 0x8c, 0x55, 0x92, 0x3e, 0x75,
    0x19, 0x3e, 0x00, 0x22, 0x3e, 0x75, 0x81, 0x11, 0x3e, 0x00,
    0x24, 0x43, 0x6e, 0x12, 0x43, 0x00, 0x2b, 0x43, 0x6e, 0x3d,
    0x43, 0x00, 0x1b, 0x43, 0x75, 0x12, 0x43, 0x00, 0x0c, 0x3e,
    0x75, 0x2a, 0x3e, 0x00, 0x14, 0x40, 0x75, 0x11, 0x40, 0x00,
    0x0c, 0x42, 0x67, 0x10, 0x42, 0x00, 0x0e, 0x43, 0x6e, 0x4c,
    0x43, 0x00, 0x2b, 0x43, 0x75, 0x44, 0x43, 0x00, 0x72, 0x47,
    0x75, 0x18, 0x47, 0x00, 0x24, 0x43, 0x75, 0x2b, 0x43, 0x00,
    0x11, 0x45, 0x61, 0x13, 0x45, 0x00, 0x09, 0x47, 0x6e, 0x11,
    0x47, 0x00, 0x0c, 0x4a, 0x75, 0x58, 0x4a, 0x00, 0x22, 0x4a,
    0x75, 0x45, 0x4a, 0x00, 0x34, 0x47, 0x75, 0x40, 0x47, 0x00,
    0x19, 0x47, 0x6e, 0x15, 0x47, 0x00, 0x08, 0x43, 0x75, 0x42,
    0x43, 0x00, 0x17, 0x47, 0x75, 0x13, 0x47, 0x00, 0x0d, 0x4a,
    0x75, 0x3d, 0x4a, 0x00, 0x1b, 0x47, 0x75, 0x14, 0x47, 0x00,
    0x0d, 0x45, 0x75, 0x4f, 0x45, 0x00, 0x27, 0x45, 0x75, 0x81,
    0x0a, 0x45, 0x00, 0x68, 0x48, 0x67, 0x53, 0x48, 0x00, 0x25,
    0x4a, 0x67, 0x58, 0x4a, 0x00, 0x1e, 0x45, 0x75, 0x5b, 0x45,
    0x00, 0x1d, 0x47, 0x78, 0x2f, 0x47, 0x00, 0x49, 0x47, 0x75,
    0x18, 0x47, 0x00, 0x25, 0x47, 0x75, 0x1f, 0x47, 0x00, 0x5a,
    0x47, 0x6e, 0x1b, 0x47, 0x00, 0x21, 0x47, 0x78, 0x28, 0x47,
    0x00, 0x12, 0x45, 0x61, 0x13, 0x45, 0x00, 0x0d, 0x47, 0x53,
    0x15, 0x47, 0x00, 0x08, 0x43, 0x75, 0x6b, 0x43, 0x00, 0x0e,
    0x47, 0x75, 0x81, 0x2b, 0x47, 0x00, 0x45, 0x3e, 0x46, 0x3b,
    0x3e, 0x00, 0x1e, 0x40, 0x4c, 0x15, 0x40, 0x00, 0x07, 0x43,
    0x4e, 0x17, 0x43, 0x00, 0x26, 0x43, 0x52, 0x15, 0x43, 0x00,
    0x27, 0x47, 0x55, 0x3d, 0x47, 0x00, 0x1f, 0x47, 0x5a, 0x14,
    0x47, 0x00, 0x08, 0x47, 0x5c, 0x18, 0x47, 0x00, 0x24, 0x47,
    0x60, 0x18, 0x47, 0x00, 0x24, 0x45, 0x78, 0x19, 0x45, 0x00,
    0x25, 0x45, 0x6e, 0x11, 0x45, 0x00, 0x0d, 0x45, 0x6e, 0x13,
    0x45, 0x00, 0x08, 0x40, 0x78, 0x5a, 0x40, 0x00, 0x1f, 0x43,
    0x75, 0x81, 0x13, 0x43, 0x00, 0x20, 0x3e, 0x75, 0x19, 0x3e,
    0x00, 0x26, 0x43, 0x75, 0x81, 0x0f, 0x43, 0x00, 0x22, 0x43,
    0x6e, 0x1c, 0x43, 0x00, 0x23, 0x47, 0x78, 0x81, 0x10, 0x47,
    0x00, 0x24, 0x47, 0x75, 0x19, 0x47, 0x00, 0x20, 0x4a, 0x75,
    0x81, 0x25, 0x4a, 0x00, 0x4d, 0x43, 0x6e, 0x41, 0x43, 0x00,
    0x17, 0x47, 0x6e, 0x12, 0x47, 0x00, 0x0d, 0x4a, 0x75, 0x19,
    0x4a, 0x00, 0x22, 0x4a, 0x6e, 0x16, 0x4a, 0x00, 0x29, 0x4a,
    0x6e, 0x61, 0x4a, 0x00, 0x17, 0x4a, 0x6e, 0x31, 0x4a, 0x00,
    0x45, 0x47, 0x75, 0x3c, 0x47, 0x00, 0x1d, 0x43, 0x67, 0x13,
    0x43, 0x00, 0x0e, 0x4a, 0x6e, 0x13, 0x4a, 0x00, 0x14, 0x4a,
    0x67, 0x11, 0x4a, 0x00, 0x17, 0x4a, 0x6e, 0x14, 0x4a, 0x00,
    0x14, 0x47, 0x75, 0x4e, 0x47, 0x00, 0x29, 0x43, 0x67, 0x3b,
    0x43, 0x00, 0x3c, 0x3e, 0x78, 0x1a, 0x3e, 0x00, 0x07, 0x3e,
    0x78, 0x1a, 0x3e, 0x00, 0x0b, 0x3e, 0x78, 0x1a, 0x3e, 0x00,
    0x18, 0x43, 0x75, 0x35, 0x43, 0x00, 0x46, 0x47, 0x75, 0x39,
    0x47, 0x00, 0x1e, 0x43, 0x67, 0x15, 0x43, 0x00, 0x0a, 0x4a,
    0x75, 0x11, 0x4a, 0x00, 0x17, 0x4a, 0x75, 0x0f, 0x4a, 0x00,
    0x18, 0x4a, 0x6e, 0x13, 0x4a, 0x00, 0x17, 0x47, 0x78, 0x61,
    0x47, 0x00, 0x16, 0x43, 0x75, 0x2f, 0x43, 0x00, 0x4a, 0x3e,
    0x75, 0x1d, 0x3e, 0x00, 0x09, 0x3e, 0x75, 0x1d, 0x3e, 0x00,
    0x05, 0x3e, 0x75, 0x1d, 0x3e, 0x00, 0x13, 0x43, 0x75, 0x3b,
    0x43, 0x00, 0x3d, 0x4a, 0x6e, 0x58, 0x4a, 0x00, 0x21, 0x4f,
    0x78, 0x39, 0x4f, 0x00, 0x3e, 0x4a, 0x75, 0x60, 0x4a, 0x00,
    0x18, 0x4f, 0x6e, 0x2d, 0x4f, 0x00, 0x4b, 0x4f, 0x75, 0x78,
    0x4f, 0x00, 0x00, 0xff, 0x2f, 0x00, 0x4d, 0x54, 0x72, 0x6b,
    0x00, 0x00, 0x01, 0xf4, 0x00, 0xff, 0x03, 0x08, 0x41, 0x6c,
    0x74, 0x6f, 0x20, 0x53, 0x61, 0x78, 0x81, 0x09, 0xc3, 0x31,
    0x01, 0xb3, 0x0a, 0x2d, 0x66, 0x5b, 0x75, 0x89, 0x2f, 0x93,
    0x3c, 0x53, 0x81, 0x70, 0x3c, 0x00, 0x00, 0x3b, 0x59, 0x32,
    0x3b, 0x00, 0x81, 0x40, 0x3e, 0x6e, 0x81, 0x20, 0x3e, 0x00,
    0x15, 0x3e, 0x67, 0x1c, 0x3e, 0x00, 0x1f, 0x40, 0x59, 0x3c,
    0x40, 0x00, 0x1e, 0x40, 0x59, 0x17, 0x40, 0x00, 0x07, 0x3c,
    0x61, 0x64, 0x3c, 0x00, 0x13, 0x3e, 0x67, 0x60, 0x3e, 0x00,
    0x1a, 0x3e, 0x6e, 0x37, 0x3e, 0x00, 0x7b, 0x43, 0x61, 0x26,
    0x43, 0x00, 0x18, 0x3e, 0x61, 0x4d, 0x3e, 0x00, 0x28, 0x45,
    0x59, 0x6c, 0x45, 0x00, 0x0f, 0x43, 0x55, 0x5a, 0x43, 0x00,
    0x1b, 0x43, 0x67, 0x30, 0x43, 0x00, 0x2b, 0x43, 0x59, 0x1c,
    0x43, 0x00, 0x02, 0x40, 0x61, 0x45, 0x40, 0x00, 0x15, 0x43,
    0x59, 0x18, 0x43, 0x00, 0x05, 0x43, 0x6e, 0x40, 0x43, 0x00,
    0x1b, 0x43, 0x61, 0x1d, 0x43, 0x00, 0x00, 0x40, 0x67, 0x63,
    0x40, 0x00, 0x18, 0x42, 0x61, 0x81, 0x42, 0x42, 0x00, 0x2c,
    0x43, 0x4f, 0x5c, 0x43, 0x00, 0x1b, 0x43, 0x53, 0x62, 0x43,
    0x00, 0x19, 0x3e, 0x59, 0x6d, 0x3e, 0x00, 0x09, 0x43, 0x55,
    0x3f, 0x43, 0x00, 0x3a, 0x43, 0x61, 0x18, 0x43, 0x00, 0x23,
    0x43, 0x55, 0x3e, 0x43, 0x00, 0x3c, 0x43, 0x55, 0x21, 0x43,
    0x00, 0x18, 0x42, 0x59, 0x62, 0x42, 0x00, 0x18, 0x40, 0x55,
    0x60, 0x40, 0x00, 0x18, 0x42, 0x61, 0x81, 0x47, 0x42, 0x00,
    0x27, 0x3e, 0x46, 0x5d, 0x3e, 0x00, 0x1c, 0x3e, 0x4e, 0x16,
    0x3e, 0x00, 0x28, 0x3e, 0x52, 0x2d, 0x3e, 0x00, 0x0f, 0x43,
    0x55, 0x51, 0x43, 0x00, 0x08, 0x43, 0x5a, 0x15, 0x43, 0x00,
    0x0a, 0x43, 0x5c, 0x25, 0x43, 0x00, 0x17, 0x43, 0x60, 0x23,
    0x43, 0x00, 0x19, 0x40, 0x59, 0x23, 0x40, 0x00, 0x19, 0x40,
    0x55, 0x14, 0x40, 0x00, 0x07, 0x40, 0x53, 0x14, 0x40, 0x00,
    0x0c, 0x3d, 0x59, 0x69, 0x3d, 0x00, 0x0f, 0x40, 0x61, 0x81,
    0x30, 0x40, 0x00, 0x05, 0x3e, 0x59, 0x25, 0x3e, 0x00, 0x17,
    0x3e, 0x61, 0x81, 0x13, 0x3e, 0x00, 0x20, 0x3e, 0x67, 0x29,
    0x3e, 0x00, 0x13, 0x43, 0x53, 0x81, 0x1a, 0x43, 0x00, 0x1a,
    0x43, 0x61, 0x22, 0x43, 0x00, 0x19, 0x45, 0x55, 0x81, 0x3e,
    0x45, 0x00, 0x34, 0x3e, 0x61, 0x63, 0x3e, 0x00, 0x15, 0x47,
    0x67, 0x1f, 0x47, 0x00, 0x1c, 0x47, 0x67, 0x1a, 0x47, 0x00,
    0x21, 0x47, 0x6e, 0x48, 0x47, 0x00, 0x31, 0x47, 0x61, 0x2f,
    0x47, 0x00, 0x49, 0x43, 0x67, 0x46, 0x43, 0x00, 0x14, 0x3e,
    0x61, 0x17, 0x3e, 0x00, 0x08, 0x47, 0x59, 0x10, 0x47, 0x00,
    0x17, 0x47, 0x67, 0x15, 0x47, 0x00, 0x12, 0x47, 0x67, 0x0f,
    0x47, 0x00, 0x1a, 0x43, 0x75, 0x45, 0x43, 0x00, 0x31, 0x3e,
    0x6e, 0x47, 0x3e, 0x00, 0x34, 0x3c, 0x67, 0x58, 0x3c, 0x00,
    0x1d, 0x3e, 0x61, 0x3a, 0x3e, 0x00, 0x3e, 0x43, 0x59, 0x36,
    0x43, 0x00, 0x26, 0x3e, 0x67, 0x13, 0x3e, 0x00, 0x0b, 0x47,
    0x61, 0x12, 0x47, 0x00, 0x16, 0x47, 0x61, 0x0a, 0x47, 0x00,
    0x1e, 0x47, 0x78, 0x13, 0x47, 0x00, 0x16, 0x43, 0x6e, 0x46,
    0x43, 0x00, 0x32, 0x3e, 0x6e, 0x5a, 0x3e, 0x00, 0x1d, 0x3c,
    0x67, 0x6e, 0x3c, 0x00, 0x0a, 0x3e, 0x61, 0x49, 0x3e, 0x00,
    0x2f, 0x3c, 0x67, 0x6c, 0x3c, 0x00, 0x0a, 0x3e, 0x67, 0x30,
    0x3e, 0x00, 0x4b, 0x3c, 0x59, 0x6b, 0x3c, 0x00, 0x0d, 0x3e,
    0x59, 0x55, 0x3e, 0x00, 0x22, 0x3e, 0x55, 0x7f, 0x3e, 0x00,
    0x00, 0xff, 0x2f, 0x00, 0x4d, 0x54, 0x72, 0x6b, 0x00, 0x00,
    0x01, 0xfc, 0x00, 0xff, 0x03, 0x09, 0x54, 0x65, 0x6e, 0x6f,
    0x72, 0x20, 0x53, 0x61, 0x78, 0x81, 0x0c, 0xb4, 0x00, 0x00,
    0x01, 0x20, 0x00, 0x01, 0xc4, 0x42, 0x01, 0xb4, 0x0a, 0x2a,
    0x61, 0x5b, 0x7f, 0x89, 0x2f, 0x94, 0x36, 0x61, 0x81, 0x70,
    0x36, 0x00, 0x02, 0x37, 0x6e, 0x3c, 0x37, 0x00, 0x81, 0x34,
    0x3b, 0x6e, 0x81, 0x16, 0x3b, 0x00, 0x1c, 0x3b, 0x75, 0x1e,
    0x3b, 0x00, 0x1f, 0x3b, 0x78, 0x3c, 0x3b, 0x00, 0x1f, 0x3b,
    0x78, 0x1d, 0x39, 0x75, 0x01, 0x3b, 0x00, 0x59, 0x39, 0x00,
    0x1e, 0x37, 0x75, 0x3c, 0x37, 0x00, 0x3d, 0x3b, 0x75, 0x3c,
    0x3b, 0x00, 0x79, 0x3e, 0x61, 0x1e, 0x3e, 0x00, 0x1e, 0x3b,
    0x6e, 0x3c, 0x3b, 0x00, 0x3c, 0x3e, 0x6e, 0x5a, 0x3e, 0x00,
    0x1e, 0x42, 0x75, 0x5a, 0x42, 0x00, 0x1d, 0x3e, 0x6e, 0x3c,
    0x3e, 0x00, 0x1f, 0x3e, 0x67, 0x14, 0x3e, 0x00, 0x09, 0x3b,
    0x59, 0x3c, 0x3b, 0x00, 0x1d, 0x40, 0x59, 0x10, 0x40, 0x00,
    0x10, 0x3e, 0x78, 0x3c, 0x3e, 0x00, 0x1c, 0x3e, 0x67, 0x14,
    0x3e, 0x00, 0x0c, 0x40, 0x6e, 0x5a, 0x40, 0x00, 0x1d, 0x3e,
    0x75, 0x81, 0x34, 0x3e, 0x00, 0x3b, 0x43, 0x61, 0x5a, 0x43,
    0x00, 0x1d, 0x3e, 0x75, 0x5a, 0x3e, 0x00, 0x20, 0x3c, 0x75,
    0x5a, 0x3c, 0x00, 0x1c, 0x3e, 0x75, 0x5a, 0x3e, 0x00, 0x1f,
    0x43, 0x67, 0x1e, 0x43, 0x00, 0x1f, 0x3e, 0x75, 0x1e, 0x3e,
    0x00, 0x58, 0x43, 0x59, 0x1e, 0x43, 0x00, 0x1e, 0x3f, 0x4c,
    0x78, 0x3f, 0x00, 0x00, 0x3b, 0x61, 0x5a, 0x3b, 0x00, 0x20,
    0x3f, 0x75, 0x81, 0x16, 0x3f, 0x00, 0x59, 0x3b, 0x46, 0x60,
    0x3b, 0x00, 0x1a, 0x3b, 0x4e, 0x1c, 0x3b, 0x00, 0x1f, 0x3b,
    0x52, 0x2d, 0x3b, 0x00, 0x0e, 0x3e, 0x55, 0x3d, 0x3e, 0x00,
    0x1c, 0x3e, 0x5a, 0x1d, 0x3e, 0x00, 0x01, 0x43, 0x5c, 0x21,
    0x43, 0x00, 0x1c, 0x43, 0x60, 0x1d, 0x43, 0x00, 0x20, 0x3d,
    0x61, 0x28, 0x3d, 0x00, 0x12, 0x3d, 0x4c, 0x12, 0x3d, 0x00,
    0x0f, 0x3d, 0x53, 0x15, 0x3d, 0x00, 0x06, 0x39, 0x55, 0x5a,
    0x39, 0x00, 0x21, 0x3d, 0x61, 0x81, 0x27, 0x3d, 0x00, 0x0d,
    0x39, 0x53, 0x27, 0x39, 0x00, 0x12, 0x3b, 0x6e, 0x81, 0x07,
    0x3b, 0x00, 0x2e, 0x3b, 0x55, 0x25, 0x3b, 0x00, 0x17, 0x3e,
    0x67, 0x75, 0x3e, 0x00, 0x41, 0x3e, 0x61, 0x37, 0x3e, 0x00,
    0x05, 0x42, 0x61, 0x81, 0x1f, 0x42, 0x00, 0x51, 0x3b, 0x61,
    0x5a, 0x3b, 0x00, 0x1d, 0x43, 0x61, 0x20, 0x43, 0x00, 0x1c,
    0x43, 0x67, 0x1b, 0x43, 0x00, 0x1f, 0x43, 0x61, 0x44, 0x43,
    0x00, 0x36, 0x43, 0x61, 0x30, 0x43, 0x00, 0x48, 0x3e, 0x61,
    0x49, 0x3e, 0x00, 0x11, 0x3b, 0x61, 0x17, 0x3b, 0x00, 0x08,
    0x43, 0x61, 0x16, 0x43, 0x00, 0x11, 0x43, 0x61, 0x10, 0x43,
    0x00, 0x16, 0x43, 0x67, 0x12, 0x43, 0x00, 0x17, 0x3e, 0x61,
    0x4b, 0x3e, 0x00, 0x2f, 0x3b, 0x67, 0x38, 0x3b, 0x00, 0x40,
    0x39, 0x67, 0x5b, 0x39, 0x00, 0x1c, 0x3b, 0x6e, 0x39, 0x3b,
    0x00, 0x40, 0x3e, 0x6e, 0x48, 0x3e, 0x00, 0x12, 0x3b, 0x61,
    0x19, 0x3b, 0x00, 0x02, 0x43, 0x59, 0x18, 0x43, 0x00, 0x10,
    0x43, 0x44, 0x09, 0x43, 0x00, 0x1f, 0x43, 0x61, 0x14, 0x43,
    0x00, 0x17, 0x3e, 0x6e, 0x49, 0x3e, 0x00, 0x2d, 0x3b, 0x75,
    0x39, 0x3b, 0x00, 0x3e, 0x39, 0x61, 0x5b, 0x39, 0x00, 0x1f,
    0x3b, 0x61, 0x3d, 0x3b, 0x00, 0x39, 0x39, 0x67, 0x65, 0x39,
    0x00, 0x14, 0x3b, 0x55, 0x37, 0x3b, 0x00, 0x43, 0x39, 0x61,
    0x6b, 0x39, 0x00, 0x0c, 0x3b, 0x59, 0x3a, 0x3b, 0x00, 0x3f,
    0x3b, 0x67, 0x81, 0x16, 0x3b, 0x00, 0x00, 0xff, 0x2f, 0x00,
    0x4d, 0x54, 0x72, 0x6b, 0x00, 0x00, 0x03, 0x02, 0x00, 0xff,
    0x03, 0x09, 0x54, 0x72, 0x75, 0x6d, 0x70, 0x65, 0x74, 0x20,
    0x31, 0x81, 0x11, 0xb5, 0x00, 0x00, 0x01, 0x20, 0x00, 0x01,
    0xc5, 0x38, 0x01, 0xb5, 0x0a, 0x3f, 0x82, 0x4e, 0x95, 0x43,
    0x59, 0x34, 0x43, 0x00, 0x23, 0x47, 0x62, 0x0f, 0x47, 0x00,
    0x12, 0x4a, 0x67, 0x15, 0x4a, 0x00, 0x25, 0x4a, 0x6e, 0x16,
    0x4a, 0x00, 0x27, 0x4c, 0x67, 0x4e, 0x4c, 0x00, 0x2b, 0x4a,
    0x67, 0x3d, 0x4a, 0x00, 0x38, 0x47, 0x66, 0x38, 0x47, 0x00,
    0x24, 0x43, 0x61, 0x11, 0x43, 0x00, 0x0c, 0x4a, 0x6e, 0x11,
    0x4a, 0x00, 0x17, 0x4a, 0x67, 0x10, 0x4a, 0x00, 0x18, 0x4a,
    0x6e, 0x11, 0x4a, 0x00, 0x18, 0x47, 0x78, 0x43, 0x47, 0x00,
    0x33, 0x43, 0x6e, 0x4a, 0x43, 0x00, 0x31, 0x3e, 0x6e, 0x15,
    0x3e, 0x00, 0x10, 0x3e, 0x67, 0x13, 0x3e, 0x00, 0x15, 0x3e,
    0x6e, 0x13, 0x3e, 0x00, 0x18, 0x3e, 0x6e, 0x14, 0x3e, 0x00,
    0x13, 0x3e, 0x6e, 0x12, 0x3e, 0x00, 0x15, 0x3e, 0x75, 0x13,
    0x3e, 0x00, 0x14, 0x43, 0x78, 0x46, 0x43, 0x00, 0x71, 0x3e,
    0x75, 0x19, 0x3e, 0x00, 0x22, 0x43, 0x75, 0x81, 0x11, 0x43,
    0x00, 0x22, 0x43, 0x6e, 0x12, 0x43, 0x00, 0x2c, 0x43, 0x6e,
    0x3d, 0x43, 0x00, 0x1a, 0x43, 0x75, 0x12, 0x43, 0x00, 0x0c,
    0x3e, 0x75, 0x2a, 0x3e, 0x00, 0x12, 0x40, 0x75, 0x11, 0x40,
    0x00, 0x0f, 0x42, 0x67, 0x10, 0x42, 0x00, 0x0c, 0x43, 0x6e,
    0x4c, 0x43, 0x00, 0x2c, 0x43, 0x75, 0x44, 0x43, 0x00, 0x72,
    0x47, 0x75, 0x18, 0x47, 0x00, 0x23, 0x43, 0x75, 0x2b, 0x43,
    0x00, 0x11, 0x45, 0x61, 0x13, 0x45, 0x00, 0x0d, 0x47, 0x6e,
    0x11, 0x47, 0x00, 0x0a, 0x4a, 0x75, 0x58, 0x4a, 0x00, 0x21,
    0x4a, 0x75, 0x45, 0x4a, 0x00, 0x32, 0x47, 0x75, 0x40, 0x47,
    0x00, 0x1c, 0x47, 0x6e, 0x15, 0x47, 0x00, 0x08, 0x43, 0x75,
    0x42, 0x43, 0x00, 0x18, 0x47, 0x75, 0x13, 0x47, 0x00, 0x0a,
    0x4a, 0x75, 0x3d, 0x4a, 0x00, 0x1e, 0x47, 0x75, 0x14, 0x47,
    0x00, 0x0a, 0x45, 0x75, 0x4f, 0x45, 0x00, 0x29, 0x45, 0x75,
    0x3c, 0x45, 0x00, 0x09, 0x4a, 0x59, 0x0d, 0x4a, 0x00, 0x0d,
    0x4a, 0x62, 0x0d, 0x4a, 0x00, 0x10, 0x4a, 0x68, 0x0e, 0x4a,
    0x00, 0x0d, 0x4a, 0x6a, 0x0f, 0x4a, 0x00, 0x0a, 0x4a, 0x73,
    0x0f, 0x4a, 0x00, 0x0c, 0x4a, 0x78, 0x0f, 0x4a, 0x00, 0x16,
    0x4c, 0x78, 0x53, 0x4c, 0x00, 0x26, 0x4a, 0x73, 0x58, 0x4a,
    0x00, 0x20, 0x45, 0x75, 0x5b, 0x45, 0x00, 0x1c, 0x47, 0x78,
    0x2f, 0x47, 0x00, 0x49, 0x4a, 0x75, 0x18, 0x4a, 0x00, 0x23,
    0x47, 0x75, 0x1f, 0x47, 0x00, 0x5c, 0x4a, 0x6e, 0x1b, 0x4a,
    0x00, 0x1e, 0x47, 0x78, 0x28, 0x47, 0x00, 0x15, 0x45, 0x61,
    0x13, 0x45, 0x00, 0x0b, 0x47, 0x53, 0x15, 0x47, 0x00, 0x08,
    0x43, 0x75, 0x6b, 0x43, 0x00, 0x10, 0x47, 0x75, 0x81, 0x2b,
    0x47, 0x00, 0x45, 0x3e, 0x46, 0x3b, 0x3e, 0x00, 0x1e, 0x40,
    0x4c, 0x15, 0x40, 0x00, 0x08, 0x43, 0x4e, 0x17, 0x43, 0x00,
    0x26, 0x43, 0x52, 0x15, 0x43, 0x00, 0x26, 0x47, 0x55, 0x3d,
    0x47, 0x00, 0x1d, 0x47, 0x5a, 0x14, 0x47, 0x00, 0x09, 0x4a,
    0x5c, 0x18, 0x4a, 0x00, 0x25, 0x4a, 0x60, 0x18, 0x4a, 0x00,
    0x24, 0x45, 0x78, 0x19, 0x45, 0x00, 0x23, 0x45, 0x6e, 0x11,
    0x45, 0x00, 0x0c, 0x45, 0x6e, 0x13, 0x45, 0x00, 0x0c, 0x40,
    0x78, 0x5a, 0x40, 0x00, 0x1e, 0x45, 0x75, 0x81, 0x13, 0x45,
    0x00, 0x81, 0x1b, 0x4a, 0x70, 0x12, 0x4a, 0x00, 0x0c, 0x4a,
    0x6e, 0x10, 0x4a, 0x00, 0x0c, 0x4a, 0x6e, 0x52, 0x4a, 0x00,
    0x61, 0x4a, 0x6f, 0x13, 0x4a, 0x00, 0x0b, 0x4a, 0x6f, 0x10,
    0x4a, 0x00, 0x0e, 0x4a, 0x6f, 0x5a, 0x4a, 0x00, 0x5c, 0x4a,
    0x77, 0x11, 0x4a, 0x00, 0x0c, 0x4a, 0x78, 0x0f, 0x4a, 0x00,
    0x10, 0x4a, 0x78, 0x10, 0x4a, 0x00, 0x0d, 0x4a, 0x78, 0x0f,
    0x4a, 0x00, 0x11, 0x4a, 0x78, 0x10, 0x4a, 0x00, 0x0c, 0x4a,
    0x78, 0x0f, 0x4a, 0x00, 0x0f, 0x43, 0x78, 0x41, 0x43, 0x00,
    0x18, 0x47, 0x6e, 0x12, 0x47, 0x00, 0x0e, 0x4a, 0x75, 0x19,
    0x4a, 0x00, 0x24, 0x4a, 0x6e, 0x16, 0x4a, 0x00, 0x26, 0x4c,
    0x6e, 0x61, 0x4c, 0x00, 0x16, 0x4a, 0x6e, 0x31, 0x4a, 0x00,
    0x47, 0x47, 0x75, 0x3c, 0x47, 0x00, 0x1e, 0x43, 0x67, 0x13,
    0x43, 0x00, 0x0c, 0x4a, 0x6e, 0x13, 0x4a, 0x00, 0x13, 0x4a,
    0x67, 0x11, 0x4a, 0x00, 0x19, 0x4a, 0x6e, 0x14, 0x4a, 0x00,
    0x13, 0x47, 0x75, 0x4e, 0x47, 0x00, 0x2a, 0x43, 0x67, 0x3b,
    0x43, 0x00, 0x3d, 0x3e, 0x78, 0x56, 0x3e, 0x00, 0x23, 0x43,
    0x75, 0x35, 0x43, 0x00, 0x42, 0x47, 0x75, 0x39, 0x47, 0x00,
    0x20, 0x43, 0x67, 0x15, 0x43, 0x00, 0x09, 0x4a, 0x75, 0x11,
    0x4a, 0x00, 0x19, 0x4a, 0x75, 0x0f, 0x4a, 0x00, 0x16, 0x4a,
    0x6e, 0x13, 0x4a, 0x00, 0x16, 0x47, 0x78, 0x61, 0x47, 0x00,
    0x16, 0x43, 0x75, 0x2f, 0x43, 0x00, 0x4a, 0x3e, 0x75, 0x1b,
    0x3e, 0x00, 0x05, 0x3e, 0x75, 0x1b, 0x3e, 0x00, 0x03, 0x3e,
    0x75, 0x1b, 0x3e, 0x00, 0x1f, 0x43, 0x75, 0x3b, 0x43, 0x00,
    0x3d, 0x3e, 0x6e, 0x20, 0x3e, 0x00, 0x07, 0x3e, 0x6e, 0x20,
    0x3e, 0x00, 0x05, 0x3e, 0x6e, 0x20, 0x3e, 0x00, 0x0b, 0x43,
    0x78, 0x39, 0x43, 0x00, 0x40, 0x3e, 0x75, 0x22, 0x3e, 0x00,
    0x00, 0x3e, 0x75, 0x22, 0x3e, 0x00, 0x01, 0x3e, 0x75, 0x22,
    0x3e, 0x00, 0x11, 0x43, 0x6e, 0x2d, 0x43, 0x00, 0x4a, 0x43,
    0x75, 0x78, 0x43, 0x00, 0x00, 0xff, 0x2f, 0x00, 0x4d, 0x54,
    0x72, 0x6b, 0x00, 0x00, 0x01, 0xfb, 0x00, 0xff, 0x03, 0x08,
    0x46, 0x20, 0x48, 0x6f, 0x72, 0x6e, 0x20, 0x31, 0x81, 0x16,
    0xb6, 0x00, 0x00, 0x01, 0x20, 0x00, 0x01, 0xc6, 0x3c, 0x01,
    0xb6, 0x0a, 0x49, 0x57, 0x5b, 0x6b, 0x89, 0x32, 0x96, 0x3c,
    0x53, 0x81, 0x70, 0x3c, 0x00, 0x00, 0x3b, 0x59, 0x32, 0x3b,
    0x00, 0x81, 0x3b, 0x3e, 0x6e, 0x81, 0x20, 0x3e, 0x00, 0x17,
    0x3e, 0x67, 0x1c, 0x3e, 0x00, 0x20, 0x40, 0x59, 0x3c, 0x40,
    0x00, 0x1b, 0x40, 0x59, 0x17, 0x40, 0x00, 0x07, 0x3c, 0x61,
    0x64, 0x3c, 0x00, 0x17, 0x3e, 0x67, 0x60, 0x3e, 0x00, 0x17,
    0x3e, 0x6e, 0x37, 0x3e, 0x00, 0x7c, 0x43, 0x61, 0x26, 0x43,
    0x00, 0x16, 0x3e, 0x61, 0x4d, 0x3e, 0x00, 0x2d, 0x45, 0x59,
    0x6c, 0x45, 0x00, 0x09, 0x43, 0x55, 0x5a, 0x43, 0x00, 0x21,
    0x43, 0x67, 0x30, 0x43, 0x00, 0x28, 0x43, 0x59, 0x1c, 0x43,
    0x00, 0x04, 0x40, 0x61, 0x45, 0x40, 0x00, 0x15, 0x43, 0x59,
    0x18, 0x43, 0x00, 0x06, 0x43, 0x6e, 0x40, 0x43, 0x00, 0x17,
    0x43, 0x61, 0x1d, 0x43, 0x00, 0x03, 0x40, 0x67, 0x63, 0x40,
    0x00, 0x16, 0x42, 0x61, 0x81, 0x42, 0x42, 0x00, 0x2d, 0x43,
    0x4f, 0x5c, 0x43, 0x00, 0x1c, 0x43, 0x53, 0x62, 0x43, 0x00,
    0x15, 0x3e, 0x59, 0x6d, 0x3e, 0x00, 0x0b, 0x43, 0x55, 0x3f,
    0x43, 0x00, 0x3a, 0x43, 0x61, 0x18, 0x43, 0x00, 0x24, 0x43,
    0x55, 0x3e, 0x43, 0x00, 0x3a, 0x43, 0x55, 0x21, 0x43, 0x00,
    0x1a, 0x42, 0x53, 0x62, 0x42, 0x00, 0x17, 0x40, 0x5b, 0x60,
    0x40, 0x00, 0x19, 0x42, 0x62, 0x81, 0x47, 0x42, 0x00, 0x27,
    0x3e, 0x46, 0x5d, 0x3e, 0x00, 0x1d, 0x3e, 0x4e, 0x16, 0x3e,
    0x00, 0x26, 0x3e, 0x52, 0x2d, 0x3e, 0x00, 0x0d, 0x43, 0x55,
    0x51, 0x43, 0x00, 0x0b, 0x43, 0x5a, 0x15, 0x43, 0x00, 0x08,
    0x43, 0x5c, 0x25, 0x43, 0x00, 0x17, 0x43, 0x60, 0x23, 0x43,
    0x00, 0x1a, 0x40, 0x59, 0x23, 0x40, 0x00, 0x19, 0x40, 0x55,
    0x14, 0x40, 0x00, 0x09, 0x40, 0x53, 0x14, 0x40, 0x00, 0x0a,
    0x3d, 0x59, 0x69, 0x3d, 0x00, 0x0d, 0x40, 0x61, 0x81, 0x30,
    0x40, 0x00, 0x06, 0x3e, 0x59, 0x25, 0x3e, 0x00, 0x16, 0x3e,
    0x61, 0x81, 0x13, 0x3e, 0x00, 0x23, 0x3e, 0x67, 0x29, 0x3e,
    0x00, 0x11, 0x43, 0x53, 0x81, 0x1a, 0x43, 0x00, 0x1b, 0x43,
    0x61, 0x22, 0x43, 0x00, 0x1a, 0x45, 0x55, 0x81, 0x3e, 0x45,
    0x00, 0x31, 0x3e, 0x61, 0x63, 0x3e, 0x00, 0x17, 0x47, 0x67,
    0x1f, 0x47, 0x00, 0x1c, 0x47, 0x67, 0x1a, 0x47, 0x00, 0x21,
    0x47, 0x6e, 0x48, 0x47, 0x00, 0x30, 0x47, 0x61, 0x2f, 0x47,
    0x00, 0x4a, 0x43, 0x67, 0x46, 0x43, 0x00, 0x12, 0x3e, 0x61,
    0x17, 0x3e, 0x00, 0x0a, 0x47, 0x59, 0x10, 0x47, 0x00, 0x15,
    0x47, 0x67, 0x15, 0x47, 0x00, 0x14, 0x47, 0x67, 0x0f, 0x47,
    0x00, 0x1a, 0x43, 0x75, 0x45, 0x43, 0x00, 0x31, 0x3e, 0x6e,
    0x47, 0x3e, 0x00, 0x31, 0x3c, 0x67, 0x58, 0x3c, 0x00, 0x21,
    0x3e, 0x61, 0x3a, 0x3e, 0x00, 0x3e, 0x43, 0x59, 0x36, 0x43,
    0x00, 0x24, 0x3e, 0x67, 0x13, 0x3e, 0x00, 0x0b, 0x47, 0x61,
    0x12, 0x47, 0x00, 0x18, 0x47, 0x61, 0x0a, 0x47, 0x00, 0x1e,
    0x47, 0x78, 0x13, 0x47, 0x00, 0x13, 0x43, 0x6e, 0x46, 0x43,
    0x00, 0x32, 0x3e, 0x6e, 0x5a, 0x3e, 0x00, 0x1f, 0x3c, 0x67,
    0x6e, 0x3c, 0x00, 0x0a, 0x3e, 0x61, 0x49, 0x3e, 0x00, 0x2e,
    0x3c, 0x67, 0x6c, 0x3c, 0x00, 0x0b, 0x3e, 0x67, 0x30, 0x3e,
    0x00, 0x48, 0x3c, 0x59, 0x6b, 0x3c, 0x00, 0x0d, 0x3e, 0x59,
    0x55, 0x3e, 0x00, 0x23, 0x3e, 0x55, 0x7f, 0x3e, 0x00, 0x00,
    0xff, 0x2f, 0x00, 0x4d, 0x54, 0x72, 0x6b, 0x00, 0x00, 0x01,
    0xfd, 0x00, 0xff, 0x03, 0x0a, 0x54, 0x72, 0x6f, 0x6d, 0x62,
    0x6f, 0x6e, 0x65, 0x20, 0x31, 0x81, 0x1b, 0xb7, 0x00, 0x00,
    0x01, 0x20, 0x00, 0x01, 0xc7, 0x39, 0x01, 0xb7, 0x0a, 0x56,
    0x52, 0x5b, 0x70, 0x89, 0x31, 0x97, 0x36, 0x61, 0x81, 0x6e,
    0x37, 0x6e, 0x02, 0x36, 0x00, 0x3a, 0x37, 0x00, 0x81, 0x35,
    0x3b, 0x6e, 0x81, 0x16, 0x3b, 0x00, 0x20, 0x3b, 0x75, 0x1e,
    0x3b, 0x00, 0x1d, 0x3b, 0x78, 0x3c, 0x3b, 0x00, 0x1e, 0x3b,
    0x78, 0x1c, 0x39, 0x75, 0x02, 0x3b, 0x00, 0x58, 0x39, 0x00,
    0x20, 0x37, 0x75, 0x3c, 0x37, 0x00, 0x3c, 0x3b, 0x75, 0x3c,
    0x3b, 0x00, 0x77, 0x3e, 0x61, 0x1e, 0x3e, 0x00, 0x1f, 0x3b,
    0x6e, 0x3c, 0x3b, 0x00, 0x3d, 0x3e, 0x6e, 0x5a, 0x3e, 0x00,
    0x1e, 0x42, 0x75, 0x5a, 0x42, 0x00, 0x1e, 0x3e, 0x6e, 0x3c,
    0x3e, 0x00, 0x1c, 0x3e, 0x67, 0x14, 0x3e, 0x00, 0x0b, 0x3b,
    0x59, 0x3c, 0x3b, 0x00, 0x1f, 0x40, 0x59, 0x10, 0x40, 0x00,
    0x0c, 0x3e, 0x78, 0x3c, 0x3e, 0x00, 0x1e, 0x3e, 0x67, 0x14,
    0x3e, 0x00, 0x0c, 0x40, 0x6e, 0x5a, 0x40, 0x00, 0x1b, 0x3e,
    0x75, 0x81, 0x34, 0x3e, 0x00, 0x3c, 0x43, 0x61, 0x5a, 0x43,
    0x00, 0x1f, 0x3e, 0x75, 0x5a, 0x3e, 0x00, 0x1e, 0x3c, 0x75,
    0x5a, 0x3c, 0x00, 0x1e, 0x3e, 0x75, 0x5a, 0x3e, 0x00, 0x1f,
    0x43, 0x67, 0x1e, 0x43, 0x00, 0x1f, 0x3e, 0x75, 0x1e, 0x3e,
    0x00, 0x59, 0x43, 0x59, 0x1e, 0x43, 0x00, 0x1d, 0x3f, 0x58,
    0x78, 0x3f, 0x00, 0x00, 0x3b, 0x64, 0x5a, 0x3b, 0x00, 0x20,
    0x3f, 0x75, 0x81, 0x16, 0x3f, 0x00, 0x57, 0x3b, 0x46, 0x60,
    0x3b, 0x00, 0x1b, 0x3b, 0x4e, 0x1c, 0x3b, 0x00, 0x20, 0x3b,
    0x52, 0x2d, 0x3b, 0x00, 0x0e, 0x3e, 0x55, 0x3d, 0x3e, 0x00,
    0x1b, 0x3e, 0x5a, 0x1d, 0x3e, 0x00, 0x02, 0x43, 0x5c, 0x21,
    0x43, 0x00, 0x1c, 0x43, 0x60, 0x1d, 0x43, 0x00, 0x20, 0x3d,
    0x61, 0x28, 0x3d, 0x00, 0x11, 0x3d, 0x4c, 0x12, 0x3d, 0x00,
    0x0d, 0x3d, 0x53, 0x15, 0x3d, 0x00, 0x08, 0x39, 0x55, 0x5a,
    0x39, 0x00, 0x1e, 0x3d, 0x61, 0x81, 0x27, 0x3d, 0x00, 0x0d,
    0x39, 0x53, 0x27, 0x39, 0x00, 0x16, 0x3b, 0x6e, 0x81, 0x07,
    0x3b, 0x00, 0x2f, 0x3b, 0x55, 0x25, 0x3b, 0x00, 0x16, 0x3e,
    0x67, 0x75, 0x3e, 0x00, 0x3f, 0x3e, 0x61, 0x37, 0x3e, 0x00,
    0x03, 0x42, 0x61, 0x81, 0x1f, 0x42, 0x00, 0x53, 0x3b, 0x61,
    0x5a, 0x3b, 0x00, 0x1d, 0x43, 0x61, 0x20, 0x43, 0x00, 0x1d,
    0x43, 0x67, 0x1b, 0x43, 0x00, 0x1f, 0x43, 0x61, 0x44, 0x43,
    0x00, 0x37, 0x43, 0x61, 0x30, 0x43, 0x00, 0x48, 0x3e, 0x61,
    0x49, 0x3e, 0x00, 0x10, 0x3b, 0x61, 0x17, 0x3b, 0x00, 0x06,
    0x43, 0x61, 0x16, 0x43, 0x00, 0x11, 0x43, 0x61, 0x10, 0x43,
    0x00, 0x1a, 0x43, 0x67, 0x12, 0x43, 0x00, 0x16, 0x3e, 0x61,
    0x4b, 0x3e, 0x00, 0x2d, 0x3b, 0x67, 0x38, 0x3b, 0x00, 0x40,
    0x39, 0x67, 0x5b, 0x39, 0x00, 0x1d, 0x3b, 0x6e, 0x39, 0x3b,
    0x00, 0x3e, 0x3e, 0x6e, 0x48, 0x3e, 0x00, 0x12, 0x3b, 0x61,
    0x19, 0x3b, 0x00, 0x04, 0x43, 0x59, 0x18, 0x43, 0x00, 0x10,
    0x43, 0x44, 0x09, 0x43, 0x00, 0x1f, 0x43, 0x61, 0x14, 0x43,
    0x00, 0x15, 0x3e, 0x6e, 0x49, 0x3e, 0x00, 0x2e, 0x3b, 0x75,
    0x39, 0x3b, 0x00, 0x41, 0x39, 0x61, 0x5b, 0x39, 0x00, 0x1d,
    0x3b, 0x61, 0x3d, 0x3b, 0x00, 0x3b, 0x39, 0x67, 0x65, 0x39,
    0x00, 0x13, 0x3b, 0x55, 0x37, 0x3b, 0x00, 0x42, 0x39, 0x61,
    0x6b, 0x39, 0x00, 0x0a, 0x3b, 0x59, 0x3a, 0x3b, 0x00, 0x41,
    0x3b, 0x67, 0x81, 0x16, 0x3b, 0x00, 0x00, 0xff, 0x2f, 0x00,
    0x4d, 0x54, 0x72, 0x6b, 0x00, 0x00, 0x04, 0xc8, 0x00, 0xff,
    0x03, 0x0a, 0x54, 0x72, 0x6f, 0x6d, 0x62, 0x6f, 0x6e, 0x65,
    0x20, 0x32, 0x81, 0x20, 0xb8, 0x00, 0x00, 0x01, 0x20, 0x00,
    0x01, 0xc8, 0x39, 0x01, 0xb8, 0x0a, 0x59, 0x4d, 0x5b, 0x6e,
    0x02, 0x5b, 0x6e, 0x89, 0x2e, 0x98, 0x32, 0x73, 0x02, 0x26,
    0x73, 0x13, 0x32, 0x00, 0x02, 0x26, 0x00, 0x11, 0x32, 0x69,
    0x02, 0x26, 0x69, 0x10, 0x32, 0x00, 0x02, 0x26, 0x00, 0x15,
    0x32, 0x69, 0x02, 0x26, 0x69, 0x11, 0x32, 0x00, 0x02, 0x26,
    0x00, 0x11, 0x32, 0x7c, 0x02, 0x26, 0x7c, 0x12, 0x32, 0x00,
    0x02, 0x26, 0x00, 0x15, 0x32, 0x7c, 0x02, 0x26, 0x7c, 0x12,
    0x32, 0x00, 0x02, 0x26, 0x00, 0x10, 0x32, 0x73, 0x02, 0x26,
    0x73, 0x13, 0x32, 0x00, 0x02, 0x26, 0x00, 0x10, 0x37, 0x7c,
    0x02, 0x2b, 0x7c, 0x57, 0x37, 0x00, 0x02, 0x2b, 0x00, 0x81,
    0x18, 0x2b, 0x73, 0x02, 0x1f, 0x73, 0x68, 0x2b, 0x00, 0x02,
    0x1f, 0x00, 0x0a, 0x37, 0x69, 0x02, 0x2b, 0x69, 0x5f, 0x37,
    0x00, 0x02, 0x2b, 0x00, 0x15, 0x34, 0x7c, 0x02, 0x28, 0x7c,
    0x68, 0x34, 0x00, 0x02, 0x28, 0x00, 0x0b, 0x32, 0x73, 0x02,
    0x26, 0x73, 0x2a, 0x32, 0x00, 0x02, 0x26, 0x00, 0x11, 0x30,
    0x7c, 0x02, 0x24, 0x7c, 0x30, 0x30, 0x00, 0x02, 0x24, 0x00,
    0x08, 0x2f, 0x7c, 0x02, 0x23, 0x7c, 0x61, 0x2f, 0x00, 0x02,
    0x23, 0x00, 0x12, 0x2b, 0x73, 0x02, 0x1f, 0x73, 0x4e, 0x2b,
    0x00, 0x02, 0x1f, 0x00, 0x26, 0x37, 0x4c, 0x02, 0x2b, 0x4c,
    0x6b, 0x37, 0x00, 0x02, 0x2b, 0x00, 0x0a, 0x37, 0x7c, 0x02,
    0x2b, 0x7c, 0x4f, 0x37, 0x00, 0x02, 0x2b, 0x00, 0x23, 0x36,
    0x69, 0x02, 0x2a, 0x69, 0x5f, 0x36, 0x00, 0x02, 0x2a, 0x00,
    0x17, 0x32, 0x73, 0x02, 0x26, 0x73, 0x66, 0x32, 0x00, 0x02,
    0x26, 0x00, 0x0d, 0x37, 0x7c, 0x02, 0x2b, 0x7c, 0x65, 0x37,
    0x00, 0x02, 0x2b, 0x00, 0x0d, 0x34, 0x73, 0x02, 0x28, 0x73,
    0x65, 0x34, 0x00, 0x02, 0x28, 0x00, 0x12, 0x2f, 0x7c, 0x02,
    0x23, 0x7c, 0x66, 0x2f, 0x00, 0x02, 0x23, 0x00, 0x0b, 0x31,
    0x7c, 0x02, 0x25, 0x7c, 0x73, 0x31, 0x00, 0x02, 0x25, 0x00,
    0x02, 0x32, 0x7c, 0x02, 0x26, 0x7c, 0x81, 0x34, 0x32, 0x00,
    0x02, 0x26, 0x00, 0x39, 0x30, 0x73, 0x02, 0x24, 0x73, 0x62,
    0x30, 0x00, 0x02, 0x24, 0x00, 0x12, 0x2f, 0x69, 0x02, 0x23,
    0x69, 0x62, 0x2f, 0x00, 0x02, 0x23, 0x00, 0x12, 0x2a, 0x7c,
    0x02, 0x1e, 0x7c, 0x6c, 0x2a, 0x00, 0x02, 0x1e, 0x00, 0x09,
    0x2b, 0x69, 0x02, 0x1f, 0x69, 0x32, 0x2b, 0x00, 0x02, 0x1f,
    0x00, 0x3f, 0x37, 0x69, 0x02, 0x2b, 0x69, 0x1e, 0x37, 0x00,
    0x02, 0x2b, 0x00, 0x1d, 0x37, 0x7c, 0x02, 0x2b, 0x7c, 0x38,
    0x37, 0x00, 0x02, 0x2b, 0x00, 0x3b, 0x37, 0x69, 0x02, 0x2b,
    0x69, 0x2b, 0x37, 0x00, 0x02, 0x2b, 0x00, 0x0c, 0x36, 0x67,
    0x02, 0x2a, 0x67, 0x6b, 0x36, 0x00, 0x02, 0x2a, 0x00, 0x09,
    0x34, 0x69, 0x02, 0x28, 0x69, 0x6b, 0x34, 0x00, 0x02, 0x28,
    0x00, 0x09, 0x2f, 0x7a, 0x02, 0x23, 0x7a, 0x81, 0x66, 0x2f,
    0x00, 0x02, 0x23, 0x00, 0x07, 0xb8, 0x0b, 0x59, 0x00, 0x98,
    0x37, 0x68, 0x02, 0xb8, 0x0b, 0x59, 0x00, 0x98, 0x2b, 0x68,
    0x0b, 0xb8, 0x0b, 0x5a, 0x02, 0x0b, 0x5a, 0x09, 0x0b, 0x5b,
    0x02, 0x0b, 0x5b, 0x0c, 0x0b, 0x5c, 0x02, 0x0b, 0x5c, 0x0c,
    0x0b, 0x5d, 0x02, 0x0b, 0x5d, 0x08, 0x0b, 0x5e, 0x02, 0x0b,
    0x5e, 0x0c, 0x0b, 0x5f, 0x02, 0x0b, 0x5f, 0x0a, 0x0b, 0x60,
    0x02, 0x0b, 0x60, 0x0b, 0x0b, 0x61, 0x02, 0x0b, 0x61, 0x0b,
    0x0b, 0x62, 0x02, 0x0b, 0x62, 0x0a, 0x0b, 0x63, 0x02, 0x0b,
    0x63, 0x0d, 0x0b, 0x64, 0x02, 0x0b, 0x64, 0x0a, 0x0b, 0x65,
    0x02, 0x0b, 0x65, 0x0c, 0x0b, 0x66, 0x02, 0x0b, 0x66, 0x09,
    0x0b, 0x67, 0x02, 0x0b, 0x67, 0x0a, 0x0b, 0x68, 0x02, 0x0b,
    0x68, 0x0a, 0x0b, 0x69, 0x02, 0x0b, 0x69, 0x0d, 0x0b, 0x6a,
    0x02, 0x0b, 0x6a, 0x09, 0x98, 0x37, 0x00, 0x02, 0x2b, 0x00,
    0x01, 0xb8, 0x0b, 0x6b, 0x02, 0x0b, 0x6b, 0x05, 0x98, 0x35,
    0x64, 0x02, 0x29, 0x64, 0x02, 0xb8, 0x0b, 0x6c, 0x02, 0x0b,
    0x6c, 0x0a, 0x0b, 0x6d, 0x02, 0x0b, 0x6d, 0x0a, 0x0b, 0x6e,
    0x02, 0x0b, 0x6e, 0x0a, 0x0b, 0x6f, 0x02, 0x0b, 0x6f, 0x0d,
    0x0b, 0x70, 0x02, 0x0b, 0x70, 0x0c, 0x0b, 0x71, 0x02, 0x0b,
    0x71, 0x08, 0x0b, 0x72, 0x02, 0x0b, 0x72, 0x0a, 0x0b, 0x73,
    0x02, 0x0b, 0x73, 0x0d, 0x0b, 0x74, 0x02, 0x0b, 0x74, 0x0b,
    0x0b, 0x75, 0x02, 0x0b, 0x75, 0x07, 0x0b, 0x76, 0x02, 0x0b,
    0x76, 0x0e, 0x0b, 0x77, 0x02, 0x0b, 0x77, 0x0a, 0x0b, 0x78,
    0x02, 0x0b, 0x78, 0x09, 0x0b, 0x79, 0x02, 0x0b, 0x79, 0x0b,
    0x0b, 0x7a, 0x02, 0x0b, 0x7a, 0x0d, 0x0b, 0x7b, 0x02, 0x0b,
    0x7b, 0x07, 0x0b, 0x7c, 0x02, 0x0b, 0x7c, 0x0e, 0x0b, 0x7d,
    0x01, 0x98, 0x35, 0x00, 0x01, 0xb8, 0x0b, 0x7d, 0x01, 0x98,
    0x29, 0x00, 0x0a, 0xb8, 0x0b, 0x7e, 0x02, 0x0b, 0x7e, 0x08,
    0x98, 0x34, 0x79, 0x02, 0xb8, 0x0b, 0x7f, 0x00, 0x98, 0x28,
    0x79, 0x02, 0xb8, 0x0b, 0x7f, 0x1a, 0x98, 0x34, 0x00, 0x02,
    0x28, 0x00, 0x1a, 0x32, 0x7f, 0x02, 0x26, 0x7f, 0x1c, 0x32,
    0x00, 0x02, 0x26, 0x00, 0x1d, 0x31, 0x7f, 0x02, 0x25, 0x7f,
    0x1c, 0x31, 0x00, 0x02, 0x25, 0x00, 0x1c, 0x2f, 0x7b, 0x02,
    0x23, 0x7b, 0x1c, 0x2f, 0x00, 0x02, 0x23, 0x00, 0x1b, 0x2d,
    0x7c, 0x02, 0x21, 0x7c, 0x1c, 0x2d, 0x00, 0x02, 0x21, 0x00,
    0x1d, 0x2b, 0x7d, 0x02, 0x1f, 0x7d, 0x1c, 0x2b, 0x00, 0x02,
    0x1f, 0x00, 0x1d, 0x2a, 0x7d, 0x02, 0x1e, 0x7d, 0x1c, 0x2a,
    0x00, 0x02, 0x1e, 0x00, 0x1b, 0x32, 0x69, 0x02, 0x26, 0x69,
    0x1c, 0x32, 0x00, 0x02, 0x26, 0x00, 0x1d, 0x37, 0x7c, 0x02,
    0x2b, 0x7c, 0x81, 0x1f, 0x37, 0x00, 0x02, 0x2b, 0x00, 0x11,
    0x37, 0x73, 0x02, 0x2b, 0x73, 0x1b, 0x37, 0x00, 0x02, 0x2b,
    0x00, 0x1c, 0x37, 0x7f, 0x02, 0x2b, 0x7f, 0x81, 0x11, 0x37,
    0x00, 0x02, 0x2b, 0x00, 0x1d, 0x37, 0x7c, 0x02, 0x2b, 0x7c,
    0x28, 0x37, 0x00, 0x02, 0x2b, 0x00, 0x12, 0x32, 0x7c, 0x02,
    0x26, 0x7c, 0x81, 0x33, 0x32, 0x00, 0x02, 0x26, 0x00, 0x3a,
    0x2b, 0x7c, 0x02, 0x1f, 0x7c, 0x3e, 0x2b, 0x00, 0x02, 0x1f,
    0x00, 0x34, 0x2b, 0x73, 0x02, 0x1f, 0x73, 0x3e, 0x2b, 0x00,
    0x02, 0x1f, 0x00, 0x37, 0x2b, 0x69, 0x02, 0x1f, 0x69, 0x42,
    0x2b, 0x00, 0x02, 0x1f, 0x00, 0x32, 0x2b, 0x73, 0x02, 0x1f,
    0x73, 0x47, 0x2b, 0x00, 0x02, 0x1f, 0x00, 0x2c, 0x2b, 0x69,
    0x02, 0x1f, 0x69, 0x4a, 0x2b, 0x00, 0x02, 0x1f, 0x00, 0x29,
    0x2b, 0x69, 0x02, 0x1f, 0x69, 0x44, 0x2b, 0x00, 0x02, 0x1f,
    0x00, 0x32, 0x2b, 0x73, 0x02, 0x1f, 0x73, 0x46, 0x2b, 0x00,
    0x02, 0x1f, 0x00, 0x2e, 0x2b, 0x69, 0x02, 0x1f, 0x69, 0x3e,
    0x2b, 0x00, 0x02, 0x1f, 0x00, 0x35, 0x32, 0x69, 0x02, 0x26,
    0x69, 0x28, 0x32, 0x00, 0x02, 0x26, 0x00, 0x12, 0x30, 0x7c,
    0x02, 0x24, 0x7c, 0x22, 0x30, 0x00, 0x02, 0x24, 0x00, 0x14,
    0x2f, 0x73, 0x02, 0x23, 0x73, 0x21, 0x2f, 0x00, 0x02, 0x23,
    0x00, 0x17, 0x2d, 0x69, 0x02, 0x21, 0x69, 0x1e, 0x2d, 0x00,
    0x02, 0x21, 0x00, 0x1b, 0x2b, 0x7c, 0x02, 0x1f, 0x7c, 0x4c,
    0x2b, 0x00, 0x02, 0x1f, 0x00, 0x27, 0x2b, 0x60, 0x02, 0x1f,
    0x60, 0x40, 0x2b, 0x00, 0x02, 0x1f, 0x00, 0x34, 0x2b, 0x69,
    0x02, 0x1f, 0x69, 0x40, 0x2b, 0x00, 0x02, 0x1f, 0x00, 0x35,
    0x2b, 0x69, 0x02, 0x1f, 0x69, 0x36, 0x2b, 0x00, 0x02, 0x1f,
    0x00, 0x3f, 0x32, 0x69, 0x02, 0x26, 0x69, 0x22, 0x32, 0x00,
    0x02, 0x26, 0x00, 0x16, 0x30, 0x7c, 0x02, 0x24, 0x7c, 0x22,
    0x30, 0x00, 0x02, 0x24, 0x00, 0x13, 0x2f, 0x60, 0x02, 0x23,
    0x60, 0x24, 0x2f, 0x00, 0x02, 0x23, 0x00, 0x15, 0x2d, 0x73,
    0x02, 0x21, 0x73, 0x25, 0x2d, 0x00, 0x02, 0x21, 0x00, 0x13,
    0x32, 0x73, 0x02, 0x26, 0x73, 0x1f, 0x32, 0x00, 0x02, 0x26,
    0x00, 0x1b, 0x30, 0x7c, 0x02, 0x24, 0x7c, 0x23, 0x30, 0x00,
    0x02, 0x24, 0x00, 0x12, 0x2f, 0x73, 0x02, 0x23, 0x73, 0x24,
    0x2f, 0x00, 0x02, 0x23, 0x00, 0x17, 0x2d, 0x73, 0x02, 0x21,
    0x73, 0x26, 0x2d, 0x00, 0x02, 0x21, 0x00, 0x0f, 0x32, 0x73,
    0x02, 0x26, 0x73, 0x22, 0x32, 0x00, 0x02, 0x26, 0x00, 0x19,
    0x30, 0x69, 0x02, 0x24, 0x69, 0x21, 0x30, 0x00, 0x02, 0x24,
    0x00, 0x16, 0x2f, 0x73, 0x02, 0x23, 0x73, 0x21, 0x2f, 0x00,
    0x02, 0x23, 0x00, 0x15, 0x2d, 0x69, 0x02, 0x21, 0x69, 0x1e,
    0x2d, 0x00, 0x02, 0x21, 0x00, 0x1d, 0x2b, 0x73, 0x02, 0x1f,
    0x73, 0x81, 0x39, 0x2b, 0x00, 0x02, 0x1f, 0x00, 0x00, 0xff,
    0x2f, 0x00, 0x4d, 0x54, 0x72, 0x6b, 0x00, 0x00, 0x04, 0xc2,
    0x00, 0xff, 0x03, 0x04, 0x54, 0x75, 0x62, 0x61, 0x81, 0x2a,
    0xba, 0x00, 0x00, 0x01, 0x20, 0x00, 0x01, 0xca, 0x3a, 0x01,
    0xba, 0x0a, 0x5a, 0x43, 0x5b, 0x6e, 0x03, 0x5b, 0x6e, 0x89,
    0x2d, 0x9a, 0x26, 0x73, 0x03, 0x1a, 0x73, 0x12, 0x26, 0x00,
    0x03, 0x1a, 0x00, 0x10, 0x26, 0x69, 0x03, 0x1a, 0x69, 0x0f,
    0x26, 0x00, 0x03, 0x1a, 0x00, 0x14, 0x26, 0x69, 0x03, 0x1a,
    0x69, 0x10, 0x26, 0x00, 0x03, 0x1a, 0x00, 0x10, 0x26, 0x7c,
    0x03, 0x1a, 0x7c, 0x11, 0x26, 0x00, 0x03, 0x1a, 0x00, 0x14,
    0x26, 0x7c, 0x03, 0x1a, 0x7c, 0x11, 0x26, 0x00, 0x03, 0x1a,
    0x00, 0x0f, 0x26, 0x73, 0x03, 0x1a, 0x73, 0x12, 0x26, 0x00,
    0x03, 0x1a, 0x00, 0x0f, 0x2b, 0x7c, 0x03, 0x1f, 0x7c, 0x56,
    0x2b, 0x00, 0x03, 0x1f, 0x00, 0x81, 0x17, 0x1f, 0x73, 0x03,
    0x13, 0x73, 0x67, 0x1f, 0x00, 0x03, 0x13, 0x00, 0x09, 0x2b,
    0x69, 0x03, 0x1f, 0x69, 0x5e, 0x2b, 0x00, 0x03, 0x1f, 0x00,
    0x14, 0x28, 0x7c, 0x03, 0x1c, 0x7c, 0x67, 0x28, 0x00, 0x03,
    0x1c, 0x00, 0x0a, 0x26, 0x73, 0x03, 0x1a, 0x73, 0x29, 0x26,
    0x00, 0x03, 0x1a, 0x00, 0x10, 0x24, 0x7c, 0x03, 0x18, 0x7c,
    0x2f, 0x24, 0x00, 0x03, 0x18, 0x00, 0x07, 0x23, 0x7c, 0x03,
    0x17, 0x7c, 0x60, 0x23, 0x00, 0x03, 0x17, 0x00, 0x11, 0x1f,
    0x73, 0x03, 0x13, 0x73, 0x4d, 0x1f, 0x00, 0x03, 0x13, 0x00,
    0x25, 0x2b, 0x4c, 0x03, 0x1f, 0x4c, 0x6a, 0x2b, 0x00, 0x03,
    0x1f, 0x00, 0x09, 0x2b, 0x7c, 0x03, 0x1f, 0x7c, 0x4e, 0x2b,
    0x00, 0x03, 0x1f, 0x00, 0x22, 0x2a, 0x69, 0x03, 0x1e, 0x69,
    0x5e, 0x2a, 0x00, 0x03, 0x1e, 0x00, 0x16, 0x26, 0x73, 0x03,
    0x1a, 0x73, 0x65, 0x26, 0x00, 0x03, 0x1a, 0x00, 0x0c, 0x2b,
    0x7c, 0x03, 0x1f, 0x7c, 0x64, 0x2b, 0x00, 0x03, 0x1f, 0x00,
    0x0c, 0x28, 0x73, 0x03, 0x1c, 0x73, 0x64, 0x28, 0x00, 0x03,
    0x1c, 0x00, 0x11, 0x23, 0x7c, 0x03, 0x17, 0x7c, 0x65, 0x23,
    0x00, 0x03, 0x17, 0x00, 0x0a, 0x25, 0x7c, 0x03, 0x19, 0x7c,
    0x72, 0x25, 0x00, 0x03, 0x19, 0x00, 0x01, 0x26, 0x7c, 0x03,
    0x1a, 0x7c, 0x81, 0x33, 0x26, 0x00, 0x03, 0x1a, 0x00, 0x38,
    0x24, 0x73, 0x03, 0x18, 0x73, 0x61, 0x24, 0x00, 0x03, 0x18,
    0x00, 0x11, 0x23, 0x69, 0x03, 0x17, 0x69, 0x61, 0x23, 0x00,
    0x03, 0x17, 0x00, 0x11, 0x1e, 0x7c, 0x03, 0x12, 0x7c, 0x6b,
    0x1e, 0x00, 0x03, 0x12, 0x00, 0x08, 0x1f, 0x69, 0x03, 0x13,
    0x69, 0x31, 0x1f, 0x00, 0x03, 0x13, 0x00, 0x3e, 0x2b, 0x69,
    0x03, 0x1f, 0x69, 0x1d, 0x2b, 0x00, 0x03, 0x1f, 0x00, 0x1c,
    0x2b, 0x7c, 0x03, 0x1f, 0x7c, 0x37, 0x2b, 0x00, 0x03, 0x1f,
    0x00, 0x3a, 0x2b, 0x69, 0x03, 0x1f, 0x69, 0x2a, 0x2b, 0x00,
    0x03, 0x1f, 0x00, 0x0b, 0x2a, 0x67, 0x03, 0x1e, 0x67, 0x6a,
    0x2a, 0x00, 0x03, 0x1e, 0x00, 0x08, 0x28, 0x69, 0x03, 0x1c,
    0x69, 0x6a, 0x28, 0x00, 0x03, 0x1c, 0x00, 0x08, 0x23, 0x7a,
    0x03, 0x17, 0x7a, 0x81, 0x65, 0x23, 0x00, 0x03, 0x17, 0x00,
    0x06, 0xba, 0x0b, 0x59, 0x00, 0x9a, 0x2b, 0x68, 0x03, 0xba,
    0x0b, 0x59, 0x00, 0x9a, 0x1f, 0x68, 0x0a, 0xba, 0x0b, 0x5a,
    0x03, 0x0b, 0x5a, 0x08, 0x0b, 0x5b, 0x03, 0x0b, 0x5b, 0x0b,
    0x0b, 0x5c, 0x03, 0x0b, 0x5c, 0x0b, 0x0b, 0x5d, 0x03, 0x0b,
    0x5d, 0x07, 0x0b, 0x5e, 0x03, 0x0b, 0x5e, 0x0b, 0x0b, 0x5f,
    0x03, 0x0b, 0x5f, 0x09, 0x0b, 0x60, 0x03, 0x0b, 0x60, 0x0a,
    0x0b, 0x61, 0x03, 0x0b, 0x61, 0x0a, 0x0b, 0x62, 0x03, 0x0b,
    0x62, 0x09, 0x0b, 0x63, 0x03, 0x0b, 0x63, 0x0c, 0x0b, 0x64,
    0x03, 0x0b, 0x64, 0x09, 0x0b, 0x65, 0x03, 0x0b, 0x65, 0x0b,
    0x0b, 0x66, 0x03, 0x0b, 0x66, 0x08, 0x0b, 0x67, 0x03, 0x0b,
    0x67, 0x09, 0x0b, 0x68, 0x03, 0x0b, 0x68, 0x09, 0x0b, 0x69,
    0x03, 0x0b, 0x69, 0x0c, 0x0b, 0x6a, 0x03, 0x0b, 0x6a, 0x08,
    0x9a, 0x2b, 0x00, 0x03, 0x1f, 0x00, 0x00, 0xba, 0x0b, 0x6b,
    0x03, 0x0b, 0x6b, 0x04, 0x9a, 0x29, 0x64, 0x03, 0x1d, 0x64,
    0x01, 0xba, 0x0b, 0x6c, 0x03, 0x0b, 0x6c, 0x09, 0x0b, 0x6d,
    0x03, 0x0b, 0x6d, 0x09, 0x0b, 0x6e, 0x03, 0x0b, 0x6e, 0x09,
    0x0b, 0x6f, 0x03, 0x0b, 0x6f, 0x0c, 0x0b, 0x70, 0x03, 0x0b,
    0x70, 0x0b, 0x0b, 0x71, 0x03, 0x0b, 0x71, 0x07, 0x0b, 0x72,
    0x03, 0x0b, 0x72, 0x09, 0x0b, 0x73, 0x03, 0x0b, 0x73, 0x0c,
    0x0b, 0x74, 0x03, 0x0b, 0x74, 0x0a, 0x0b, 0x75, 0x03, 0x0b,
    0x75, 0x06, 0x0b, 0x76, 0x03, 0x0b, 0x76, 0x0d, 0x0b, 0x77,
    0x03, 0x0b, 0x77, 0x09, 0x0b, 0x78, 0x03, 0x0b, 0x78, 0x08,
    0x0b, 0x79, 0x03, 0x0b, 0x79, 0x0a, 0x0b, 0x7a, 0x03, 0x0b,
    0x7a, 0x0c, 0x0b, 0x7b, 0x03, 0x0b, 0x7b, 0x06, 0x0b, 0x7c,
    0x03, 0x0b, 0x7c, 0x0d, 0x0b, 0x7d, 0x01, 0x9a, 0x29, 0x00,
    0x02, 0xba, 0x0b, 0x7d, 0x01, 0x9a, 0x1d, 0x00, 0x09, 0xba,
    0x0b, 0x7e, 0x03, 0x0b, 0x7e, 0x07, 0x9a, 0x28, 0x7e, 0x02,
    0xba, 0x0b, 0x7f, 0x01, 0x9a, 0x1c, 0x7e, 0x02, 0xba, 0x0b,
    0x7f, 0x19, 0x9a, 0x28, 0x00, 0x03, 0x1c, 0x00, 0x19, 0x26,
    0x7e, 0x03, 0x1a, 0x7e, 0x1b, 0x26, 0x00, 0x03, 0x1a, 0x00,
    0x1c, 0x25, 0x7e, 0x03, 0x19, 0x7e, 0x1b, 0x25, 0x00, 0x03,
    0x19, 0x00, 0x1b, 0x23, 0x7f, 0x03, 0x17, 0x7f, 0x1b, 0x23,
    0x00, 0x03, 0x17, 0x00, 0x1a, 0x21, 0x7f, 0x03, 0x15, 0x7f,
    0x1b, 0x21, 0x00, 0x03, 0x15, 0x00, 0x1c, 0x1f, 0x7f, 0x03,
    0x13, 0x7f, 0x1b, 0x1f, 0x00, 0x03, 0x13, 0x00, 0x1c, 0x1e,
    0x7f, 0x03, 0x12, 0x7f, 0x1b, 0x1e, 0x00, 0x03, 0x12, 0x00,
    0x1a, 0x26, 0x69, 0x03, 0x1a, 0x69, 0x1b, 0x26, 0x00, 0x03,
    0x1a, 0x00, 0x1c, 0x2b, 0x7c, 0x03, 0x1f, 0x7c, 0x81, 0x1e,
    0x2b, 0x00, 0x03, 0x1f, 0x00, 0x10, 0x2b, 0x73, 0x03, 0x1f,
    0x73, 0x1a, 0x2b, 0x00, 0x03, 0x1f, 0x00, 0x1b, 0x2b, 0x7f,
    0x03, 0x1f, 0x7f, 0x81, 0x10, 0x2b, 0x00, 0x03, 0x1f, 0x00,
    0x1c, 0x2b, 0x7c, 0x03, 0x1f, 0x7c, 0x27, 0x2b, 0x00, 0x03,
    0x1f, 0x00, 0x11, 0x26, 0x7c, 0x03, 0x1a, 0x7c, 0x81, 0x32,
    0x26, 0x00, 0x03, 0x1a, 0x00, 0x39, 0x1f, 0x7c, 0x03, 0x13,
    0x7c, 0x3d, 0x1f, 0x00, 0x03, 0x13, 0x00, 0x33, 0x1f, 0x73,
    0x03, 0x13, 0x73, 0x3d, 0x1f, 0x00, 0x03, 0x13, 0x00, 0x36,
    0x1f, 0x69, 0x03, 0x13, 0x69, 0x41, 0x1f, 0x00, 0x03, 0x13,
    0x00, 0x31, 0x1f, 0x73, 0x03, 0x13, 0x73, 0x46, 0x1f, 0x00,
    0x03, 0x13, 0x00, 0x2b, 0x1f, 0x69, 0x03, 0x13, 0x69, 0x49,
    0x1f, 0x00, 0x03, 0x13, 0x00, 0x28, 0x1f, 0x69, 0x03, 0x13,
    0x69, 0x43, 0x1f, 0x00, 0x03, 0x13, 0x00, 0x31, 0x1f, 0x73,
    0x03, 0x13, 0x73, 0x45, 0x1f, 0x00, 0x03, 0x13, 0x00, 0x2d,
    0x1f, 0x69, 0x03, 0x13, 0x69, 0x3d, 0x1f, 0x00, 0x03, 0x13,
    0x00, 0x34, 0x26, 0x7a, 0x03, 0x1a, 0x7a, 0x27, 0x26, 0x00,
    0x03, 0x1a, 0x00, 0x11, 0x24, 0x7d, 0x03, 0x18, 0x7d, 0x21,
    0x24, 0x00, 0x03, 0x18, 0x00, 0x13, 0x23, 0x7f, 0x03, 0x17,
    0x7f, 0x20, 0x23, 0x00, 0x03, 0x17, 0x00, 0x16, 0x21, 0x7f,
    0x03, 0x15, 0x7f, 0x1d, 0x21, 0x00, 0x03, 0x15, 0x00, 0x1a,
    0x1f, 0x7f, 0x03, 0x13, 0x7f, 0x4b, 0x1f, 0x00, 0x03, 0x13,
    0x00, 0x26, 0x1f, 0x60, 0x03, 0x13, 0x60, 0x3f, 0x1f, 0x00,
    0x03, 0x13, 0x00, 0x33, 0x1f, 0x69, 0x03, 0x13, 0x69, 0x3f,
    0x1f, 0x00, 0x03, 0x13, 0x00, 0x34, 0x1f, 0x69, 0x03, 0x13,
    0x69, 0x35, 0x1f, 0x00, 0x03, 0x13, 0x00, 0x3e, 0x26, 0x7b,
    0x03, 0x1a, 0x7b, 0x21, 0x26, 0x00, 0x03, 0x1a, 0x00, 0x15,
    0x24, 0x7c, 0x03, 0x18, 0x7c, 0x21, 0x24, 0x00, 0x03, 0x18,
    0x00, 0x12, 0x23, 0x7c, 0x03, 0x17, 0x7c, 0x23, 0x23, 0x00,
    0x03, 0x17, 0x00, 0x14, 0x21, 0x7c, 0x03, 0x15, 0x7c, 0x24,
    0x21, 0x00, 0x03, 0x15, 0x00, 0x12, 0x26, 0x73, 0x03, 0x1a,
    0x73, 0x1e, 0x26, 0x00, 0x03, 0x1a, 0x00, 0x1a, 0x24, 0x7c,
    0x03, 0x18, 0x7c, 0x22, 0x24, 0x00, 0x03, 0x18, 0x00, 0x11,
    0x23, 0x73, 0x03, 0x17, 0x73, 0x23, 0x23, 0x00, 0x03, 0x17,
    0x00, 0x16, 0x21, 0x73, 0x03, 0x15, 0x73, 0x25, 0x21, 0x00,
    0x03, 0x15, 0x00, 0x0e, 0x26, 0x73, 0x03, 0x1a, 0x73, 0x21,
    0x26, 0x00, 0x03, 0x1a, 0x00, 0x18, 0x24, 0x79, 0x03, 0x18,
    0x79, 0x20, 0x24, 0x00, 0x03, 0x18, 0x00, 0x15, 0x23, 0x79,
    0x03, 0x17, 0x79, 0x20, 0x23, 0x00, 0x03, 0x17, 0x00, 0x14,
    0x21, 0x79, 0x03, 0x15, 0x79, 0x1d, 0x21, 0x00, 0x03, 0x15,
    0x00, 0x1c, 0x1f, 0x79, 0x03, 0x13, 0x79, 0x81, 0x38, 0x1f,
    0x00, 0x03, 0x13, 0x00, 0x00, 0xff, 0x2f, 0x00, 0x4d, 0x54,
    0x72, 0x6b, 0x00, 0x00, 0x0a, 0x56, 0x00, 0xff, 0x03, 0x05,
    0x44, 0x72, 0x75, 0x6d, 0x73, 0x81, 0x25, 0xb9, 0x00, 0x00,
    0x02, 0xc9, 0x00, 0x01, 0xb9, 0x0a, 0x40, 0x48, 0xc9, 0x30,
    0x00, 0xb9, 0x5b, 0x7f, 0x89, 0x30, 0x99, 0x24, 0x50, 0x00,
    0x26, 0x1a, 0x0a, 0x26, 0x00, 0x00, 0x26, 0x19, 0x0a, 0x26,
    0x00, 0x00, 0x26, 0x20, 0x0a, 0x26, 0x00, 0x00, 0x26, 0x25,
    0x0a, 0x26, 0x00, 0x00, 0x24, 0x4a, 0x00, 0x26, 0x27, 0x0a,
    0x26, 0x00, 0x00, 0x26, 0x2e, 0x0a, 0x26, 0x00, 0x00, 0x24,
    0x00, 0x00, 0x26, 0x34, 0x0a, 0x26, 0x00, 0x00, 0x26, 0x3a,
    0x0a, 0x26, 0x00, 0x00, 0x24, 0x4f, 0x00, 0x26, 0x3e, 0x0a,
    0x26, 0x00, 0x00, 0x26, 0x3d, 0x0a, 0x26, 0x00, 0x00, 0x24,
    0x00, 0x00, 0x26, 0x58, 0x0a, 0x26, 0x00, 0x00, 0x26, 0x56,
    0x0a, 0x26, 0x00, 0x00, 0x24, 0x4a, 0x00, 0x26, 0x49, 0x0a,
    0x26, 0x00, 0x00, 0x26, 0x4b, 0x0a, 0x26, 0x00, 0x00, 0x24,
    0x00, 0x00, 0x26, 0x4b, 0x0a, 0x26, 0x00, 0x00, 0x26, 0x4c,
    0x0a, 0x26, 0x00, 0x00, 0x24, 0x4f, 0x00, 0x26, 0x50, 0x0a,
    0x26, 0x00, 0x00, 0x26, 0x52, 0x0a, 0x26, 0x00, 0x00, 0x24,
    0x00, 0x00, 0x26, 0x52, 0x0a, 0x26, 0x00, 0x00, 0x26, 0x5c,
    0x0a, 0x26, 0x00, 0x00, 0x24, 0x48, 0x00, 0x26, 0x67, 0x0a,
    0x26, 0x00, 0x00, 0x26, 0x69, 0x0a, 0x26, 0x00, 0x00, 0x24,
    0x00, 0x00, 0x26, 0x60, 0x0a, 0x26, 0x00, 0x00, 0x26, 0x58,
    0x0a, 0x26, 0x00, 0x00, 0x39, 0x5a, 0x00, 0x24, 0x58, 0x00,
    0x26, 0x55, 0x00, 0x3b, 0x58, 0x02, 0x31, 0x64, 0x00, 0x23,
    0x7f, 0x0f, 0x23, 0x00, 0x03, 0x24, 0x00, 0x14, 0x39, 0x00,
    0x02, 0x31, 0x00, 0x12, 0x26, 0x00, 0x00, 0x24, 0x00, 0x78,
    0x3b, 0x00, 0x3c, 0x24, 0x58, 0x00, 0x3b, 0x58, 0x02, 0x39,
    0x46, 0x02, 0x23, 0x7f, 0x0d, 0x39, 0x00, 0x02, 0x23, 0x00,
    0x29, 0x24, 0x00, 0x3c, 0x3b, 0x00, 0x78, 0x24, 0x58, 0x00,
    0x3b, 0x58, 0x02, 0x39, 0x46, 0x02, 0x23, 0x7f, 0x0d, 0x39,
    0x00, 0x02, 0x23, 0x00, 0x29, 0x24, 0x00, 0x3c, 0x3b, 0x00,
    0x00, 0x24, 0x4f, 0x3c, 0x24, 0x00, 0x3c, 0x24, 0x4e, 0x00,
    0x3b, 0x3c, 0x02, 0x39, 0x46, 0x02, 0x23, 0x7f, 0x0d, 0x39,
    0x00, 0x02, 0x23, 0x00, 0x29, 0x3b, 0x00, 0x00, 0x24, 0x00,
    0x3c, 0x24, 0x50, 0x00, 0x3b, 0x43, 0x02, 0x39, 0x46, 0x0f,
    0x39, 0x00, 0x2b, 0x3b, 0x00, 0x00, 0x24, 0x00, 0x39, 0x39,
    0x5a, 0x03, 0x31, 0x5a, 0x00, 0x24, 0x58, 0x00, 0x3b, 0x58,
    0x04, 0x23, 0x7f, 0x0f, 0x23, 0x00, 0x12, 0x39, 0x00, 0x03,
    0x31, 0x00, 0x14, 0x24, 0x00, 0x3c, 0x3b, 0x00, 0x00, 0x24,
    0x4f, 0x3c, 0x24, 0x00, 0x3c, 0x24, 0x48, 0x00, 0x3b, 0x58,
    0x02, 0x39, 0x46, 0x02, 0x23, 0x7f, 0x0d, 0x39, 0x00, 0x02,
    0x23, 0x00, 0x29, 0x3b, 0x00, 0x00, 0x24, 0x00, 0x39, 0x39,
    0x46, 0x03, 0x24, 0x4d, 0x00, 0x3b, 0x58, 0x0c, 0x39, 0x00,
    0x30, 0x3b, 0x00, 0x00, 0x24, 0x00, 0x3c, 0x24, 0x15, 0x00,
    0x3b, 0x58, 0x02, 0x39, 0x46, 0x02, 0x23, 0x7f, 0x0d, 0x39,
    0x00, 0x02, 0x23, 0x00, 0x29, 0x3b, 0x00, 0x00, 0x24, 0x00,
    0x3c, 0x24, 0x58, 0x00, 0x3b, 0x58, 0x06, 0x39, 0x46, 0x0f,
    0x39, 0x00, 0x27, 0x3b, 0x00, 0x00, 0x24, 0x00, 0x3c, 0x24,
    0x4e, 0x00, 0x3b, 0x58, 0x02, 0x39, 0x46, 0x02, 0x23, 0x7f,
    0x0d, 0x39, 0x00, 0x02, 0x23, 0x00, 0x29, 0x3b, 0x00, 0x00,
    0x24, 0x00, 0x3c, 0x24, 0x58, 0x00, 0x3b, 0x43, 0x04, 0x39,
    0x46, 0x0f, 0x39, 0x00, 0x29, 0x3b, 0x00, 0x00, 0x24, 0x00,
    0x3c, 0x24, 0x46, 0x00, 0x26, 0x24, 0x04, 0x23, 0x7f, 0x06,
    0x26, 0x00, 0x00, 0x26, 0x37, 0x09, 0x23, 0x00, 0x01, 0x26,
    0x00, 0x00, 0x26, 0x23, 0x0a, 0x26, 0x00, 0x00, 0x26, 0x32,
    0x0a, 0x26, 0x00, 0x00, 0x26, 0x27, 0x0a, 0x26, 0x00, 0x00,
    0x26, 0x32, 0x0a, 0x26, 0x00, 0x00, 0x24, 0x00, 0x00, 0x26,
    0x2a, 0x0a, 0x26, 0x00, 0x00, 0x26, 0x45, 0x0a, 0x26, 0x00,
    0x00, 0x26, 0x3c, 0x0a, 0x26, 0x00, 0x00, 0x26, 0x50, 0x0a,
    0x26, 0x00, 0x00, 0x26, 0x41, 0x0a, 0x26, 0x00, 0x00, 0x26,
    0x4f, 0x0a, 0x26, 0x00, 0x00, 0x26, 0x45, 0x0a, 0x26, 0x00,
    0x00, 0x26, 0x58, 0x0a, 0x26, 0x00, 0x00, 0x26, 0x45, 0x0a,
    0x26, 0x00, 0x00, 0x26, 0x55, 0x0a, 0x26, 0x00, 0x00, 0x26,
    0x4b, 0x0a, 0x26, 0x00, 0x00, 0x26, 0x5e, 0x0a, 0x26, 0x00,
    0x00, 0x26, 0x43, 0x0a, 0x26, 0x00, 0x00, 0x26, 0x58, 0x0a,
    0x26, 0x00, 0x00, 0x26, 0x49, 0x0a, 0x26, 0x00, 0x00, 0x26,
    0x58, 0x0a, 0x26, 0x00, 0x00, 0x26, 0x57, 0x0a, 0x26, 0x00,
    0x00, 0x26, 0x60, 0x03, 0x31, 0x50, 0x00, 0x39, 0x50, 0x07,
    0x26, 0x00, 0x00, 0x24, 0x58, 0x00, 0x3b, 0x58, 0x00, 0x26,
    0x60, 0x02, 0x23, 0x7f, 0x08, 0x26, 0x00, 0x07, 0x23, 0x00,
    0x10, 0x31, 0x00, 0x00, 0x39, 0x00, 0x1b, 0x24, 0x00, 0x00,
    0x3b, 0x00, 0x35, 0x39, 0x50, 0x04, 0x31, 0x50, 0x03, 0x24,
    0x50, 0x00, 0x3b, 0x58, 0x21, 0x39, 0x00, 0x04, 0x31, 0x00,
    0x17, 0x24, 0x00, 0x00, 0x3b, 0x00, 0x35, 0x39, 0x50, 0x04,
    0x31, 0x50, 0x03, 0x24, 0x4a, 0x00, 0x3b, 0x58, 0x02, 0x23,
    0x7f, 0x0f, 0x23, 0x00, 0x10, 0x39, 0x00, 0x04, 0x31, 0x00,
    0x17, 0x24, 0x00, 0x00, 0x3b, 0x00, 0x39, 0x31, 0x50, 0x00,
    0x39, 0x50, 0x03, 0x24, 0x4f, 0x00, 0x3b, 0x58, 0x25, 0x39,
    0x00, 0x00, 0x31, 0x00, 0x17, 0x24, 0x00, 0x00, 0x3b, 0x00,
    0x3c, 0x31, 0x50, 0x00, 0x39, 0x64, 0x00, 0x24, 0x50, 0x00,
    0x3b, 0x58, 0x06, 0x23, 0x7f, 0x0f, 0x23, 0x00, 0x13, 0x31,
    0x00, 0x00, 0x39, 0x00, 0x0f, 0x31, 0x50, 0x02, 0x39, 0x5a,
    0x03, 0x24, 0x00, 0x00, 0x3b, 0x00, 0x00, 0x24, 0x50, 0x00,
    0x3b, 0x58, 0x23, 0x31, 0x00, 0x02, 0x39, 0x00, 0x17, 0x24,
    0x00, 0x00, 0x3b, 0x00, 0x7c, 0x23, 0x7f, 0x0f, 0x23, 0x00,
    0x81, 0x61, 0x23, 0x7f, 0x0f, 0x23, 0x00, 0x65, 0x26, 0x2c,
    0x0a, 0x26, 0x00, 0x00, 0x26, 0x32, 0x0a, 0x26, 0x00, 0x00,
    0x26, 0x32, 0x0a, 0x26, 0x00, 0x00, 0x26, 0x2c, 0x0a, 0x26,
    0x00, 0x00, 0x26, 0x37, 0x0a, 0x26, 0x00, 0x00, 0x26, 0x37,
    0x0a, 0x26, 0x00, 0x00, 0x26, 0x46, 0x0a, 0x26, 0x00, 0x00,
    0x26, 0x46, 0x0a, 0x26, 0x00, 0x00, 0x26, 0x37, 0x0a, 0x26,
    0x00, 0x00, 0x26, 0x3d, 0x0a, 0x26, 0x00, 0x00, 0x26, 0x43,
    0x0a, 0x26, 0x00, 0x00, 0x26, 0x5e, 0x0a, 0x26, 0x00, 0x02,
    0x23, 0x7f, 0x0f, 0x23, 0x00, 0x85, 0x3f, 0x26, 0x10, 0x0a,
    0x26, 0x00, 0x00, 0x26, 0x06, 0x0a, 0x26, 0x00, 0x00, 0x26,
    0x11, 0x0a, 0x26, 0x00, 0x00, 0x26, 0x18, 0x0a, 0x26, 0x00,
    0x00, 0x26, 0x0f, 0x0a, 0x26, 0x00, 0x00, 0x26, 0x20, 0x0a,
    0x26, 0x00, 0x00, 0x26, 0x2c, 0x0a, 0x26, 0x00, 0x00, 0x26,
    0x1d, 0x0a, 0x26, 0x00, 0x00, 0x26, 0x34, 0x0a, 0x26, 0x00,
    0x00, 0x26, 0x28, 0x0a, 0x26, 0x00, 0x00, 0x26, 0x44, 0x0a,
    0x26, 0x00, 0x00, 0x26, 0x34, 0x0a, 0x26, 0x00, 0x00, 0x26,
    0x4b, 0x0a, 0x26, 0x00, 0x00, 0x26, 0x3c, 0x0a, 0x26, 0x00,
    0x00, 0x26, 0x52, 0x0a, 0x26, 0x00, 0x00, 0x26, 0x45, 0x0a,
    0x26, 0x00, 0x00, 0x26, 0x54, 0x0a, 0x26, 0x00, 0x00, 0x26,
    0x43, 0x0a, 0x26, 0x00, 0x00, 0x26, 0x58, 0x0a, 0x26, 0x00,
    0x00, 0x26, 0x4e, 0x0a, 0x26, 0x00, 0x00, 0x26, 0x4f, 0x0a,
    0x26, 0x00, 0x00, 0x26, 0x4e, 0x0a, 0x26, 0x00, 0x00, 0x26,
    0x56, 0x0a, 0x26, 0x00, 0x00, 0x26, 0x4e, 0x07, 0x39, 0x64,
    0x03, 0x26, 0x00, 0x00, 0x33, 0x64, 0x00, 0x23, 0x7f, 0x00,
    0x24, 0x58, 0x00, 0x3b, 0x58, 0x00, 0x26, 0x57, 0x02, 0x1f,
    0x64, 0x08, 0x26, 0x00, 0x00, 0x26, 0x56, 0x05, 0x23, 0x00,
    0x02, 0x1f, 0x00, 0x03, 0x26, 0x00, 0x00, 0x26, 0x1f, 0x0a,
    0x26, 0x00, 0x00, 0x26, 0x24, 0x07, 0x39, 0x00, 0x03, 0x33,
    0x00, 0x00, 0x26, 0x00, 0x00, 0x26, 0x32, 0x0a, 0x26, 0x00,
    0x00, 0x26, 0x2b, 0x0a, 0x26, 0x00, 0x00, 0x24, 0x00, 0x00,
    0x26, 0x27, 0x0a, 0x26, 0x00, 0x00, 0x26, 0x2c, 0x0a, 0x26,
    0x00, 0x00, 0x26, 0x2b, 0x0a, 0x26, 0x00, 0x00, 0x26, 0x2b,
    0x0a, 0x26, 0x00, 0x00, 0x26, 0x2c, 0x0a, 0x26, 0x00, 0x00,
    0x26, 0x2d, 0x0a, 0x26, 0x00, 0x00, 0x3b, 0x00, 0x00, 0x26,
    0x31, 0x0a, 0x26, 0x00, 0x00, 0x26, 0x2c, 0x0a, 0x26, 0x00,
    0x00, 0x26, 0x1b, 0x0a, 0x26, 0x00, 0x00, 0x26, 0x32, 0x0a,
    0x26, 0x00, 0x00, 0x26, 0x32, 0x0a, 0x26, 0x00, 0x00, 0x26,
    0x32, 0x0a, 0x26, 0x00, 0x00, 0x26, 0x32, 0x0a, 0x26, 0x00,
    0x00, 0x26, 0x26, 0x0a, 0x26, 0x00, 0x00, 0x26, 0x26, 0x0a,
    0x26, 0x00, 0x00, 0x26, 0x1e, 0x0a, 0x26, 0x00, 0x00, 0x26,
    0x1e, 0x0a, 0x26, 0x00, 0x00, 0x26, 0x1e, 0x0a, 0x26, 0x00,
    0x00, 0x1f, 0x64, 0x00, 0x39, 0x64, 0x00, 0x24, 0x58, 0x00,
    0x3b, 0x58, 0x00, 0x26, 0x55, 0x02, 0x31, 0x64, 0x00, 0x33,
    0x64, 0x00, 0x21, 0x64, 0x02, 0x23, 0x7f, 0x06, 0x26, 0x00,
    0x00, 0x26, 0x2a, 0x05, 0x1f, 0x00, 0x02, 0x21, 0x00, 0x02,
    0x23, 0x00, 0x01, 0x26, 0x00, 0x00, 0x26, 0x30, 0x0a, 0x26,
    0x00, 0x00, 0x26, 0x2c, 0x0a, 0x26, 0x00, 0x00, 0x39, 0x00,
    0x00, 0x26, 0x2c, 0x02, 0x31, 0x00, 0x00, 0x33, 0x00, 0x08,
    0x26, 0x00, 0x00, 0x26, 0x2c, 0x0a, 0x26, 0x00, 0x00, 0x24,
    0x00, 0x00, 0x26, 0x2b, 0x0a, 0x26, 0x00, 0x00, 0x26, 0x28,
    0x0a, 0x26, 0x00, 0x00, 0x26, 0x28, 0x0a, 0x26, 0x00, 0x00,
    0x26, 0x2a, 0x0a, 0x26, 0x00, 0x00, 0x26, 0x2e, 0x0a, 0x26,
    0x00, 0x00, 0x26, 0x30, 0x0a, 0x26, 0x00, 0x00, 0x3b, 0x00,
    0x00, 0x26, 0x2c, 0x0a, 0x26, 0x00, 0x00, 0x26, 0x2b, 0x0a,
    0x26, 0x00, 0x00, 0x26, 0x2b, 0x0a, 0x26, 0x00, 0x00, 0x26,
    0x2a, 0x0a, 0x26, 0x00, 0x00, 0x26, 0x21, 0x0a, 0x26, 0x00,
    0x00, 0x26, 0x21, 0x0a, 0x26, 0x00, 0x00, 0x26, 0x22, 0x0a,
    0x26, 0x00, 0x00, 0x26, 0x25, 0x0a, 0x26, 0x00, 0x00, 0x26,
    0x28, 0x0a, 0x26, 0x00, 0x00, 0x26, 0x2b, 0x0a, 0x26, 0x00,
    0x00, 0x26, 0x30, 0x0a, 0x26, 0x00, 0x00, 0x26, 0x30, 0x05,
    0x33, 0x64, 0x02, 0x31, 0x64, 0x03, 0x26, 0x00, 0x00, 0x1f,
    0x64, 0x00, 0x39, 0x64, 0x00, 0x24, 0x58, 0x00, 0x3b, 0x58,
    0x00, 0x26, 0x57, 0x02, 0x23, 0x7f, 0x02, 0x21, 0x64, 0x06,
    0x26, 0x00, 0x00, 0x26, 0x2c, 0x05, 0x1f, 0x00, 0x02, 0x23,
    0x00, 0x02, 0x21, 0x00, 0x01, 0x26, 0x00, 0x00, 0x26, 0x2a,
    0x0a, 0x26, 0x00, 0x00, 0x26, 0x2b, 0x05, 0x33, 0x00, 0x02,
    0x31, 0x00, 0x03, 0x39, 0x00, 0x00, 0x26, 0x00, 0x00, 0x26,
    0x21, 0x0a, 0x26, 0x00, 0x00, 0x26, 0x21, 0x0a, 0x26, 0x00,
    0x00, 0x24, 0x00, 0x00, 0x26, 0x21, 0x0a, 0x26, 0x00, 0x00,
    0x26, 0x21, 0x0a, 0x26, 0x00, 0x00, 0x26, 0x21, 0x0a, 0x26,
    0x00, 0x00, 0x26, 0x21, 0x0a, 0x26, 0x00, 0x00, 0x26, 0x21,
    0x0a, 0x26, 0x00, 0x00, 0x26, 0x21, 0x0a, 0x26, 0x00, 0x00,
    0x3b, 0x00, 0x00, 0x26, 0x32, 0x0a, 0x26, 0x00, 0x00, 0x26,
    0x46, 0x0a, 0x26, 0x00, 0x00, 0x26, 0x37, 0x0a, 0x26, 0x00,
    0x00, 0x26, 0x31, 0x0a, 0x26, 0x00, 0x00, 0x26, 0x2b, 0x0a,
    0x26, 0x00, 0x00, 0x26, 0x34, 0x0a, 0x26, 0x00, 0x00, 0x26,
    0x32, 0x0a, 0x26, 0x00, 0x00, 0x26, 0x36, 0x0a, 0x26, 0x00,
    0x00, 0x26, 0x31, 0x0a, 0x26, 0x00, 0x00, 0x26, 0x2d, 0x0a,
    0x26, 0x00, 0x00, 0x26, 0x24, 0x0a, 0x26, 0x00, 0x00, 0x26,
    0x37, 0x0a, 0x26, 0x00, 0x00, 0x24, 0x25, 0x00, 0x26, 0x18,
    0x02, 0x1d, 0x7f, 0x02, 0x1f, 0x64, 0x00, 0x23, 0x7f, 0x0f,
    0x23, 0x00, 0x00, 0x1f, 0x00, 0x0f, 0x1d, 0x00, 0x1a, 0x26,
    0x00, 0x00, 0x24, 0x00, 0x3c, 0x1f, 0x64, 0x00, 0x24, 0x38,
    0x00, 0x26, 0x39, 0x02, 0x1d, 0x7f, 0x02, 0x23, 0x7f, 0x0b,
    0x1f, 0x00, 0x04, 0x23, 0x00, 0x17, 0x1d, 0x00, 0x12, 0x26,
    0x00, 0x00, 0x24, 0x00, 0x3c, 0x1d, 0x7f, 0x00, 0x24, 0x41,
    0x00, 0x26, 0x34, 0x02, 0x1f, 0x64, 0x02, 0x23, 0x7f, 0x0b,
    0x1d, 0x00, 0x02, 0x1f, 0x00, 0x02, 0x23, 0x00, 0x29, 0x26,
    0x00, 0x00, 0x24, 0x00, 0x39, 0x1f, 0x64, 0x00, 0x1d, 0x7f,
    0x03, 0x24, 0x58, 0x00, 0x26, 0x37, 0x02, 0x23, 0x7f, 0x0a,
    0x1d, 0x00, 0x00, 0x1f, 0x00, 0x05, 0x23, 0x00, 0x2b, 0x24,
    0x00, 0x00, 0x26, 0x00, 0x3c, 0x1f, 0x64, 0x00, 0x1d, 0x7f,
    0x00, 0x24, 0x58, 0x00, 0x26, 0x37, 0x04, 0x23, 0x7f, 0x0b,
    0x1d, 0x00, 0x00, 0x1f, 0x00, 0x04, 0x23, 0x00, 0x29, 0x24,
    0x00, 0x00, 0x26, 0x00, 0x3c, 0x1f, 0x64, 0x00, 0x1d, 0x7f,
    0x00, 0x23, 0x7f, 0x00, 0x24, 0x58, 0x00, 0x26, 0x3a, 0x0f,
    0x23, 0x00, 0x00, 0x1f, 0x00, 0x00, 0x1d, 0x00, 0x2d, 0x24,
    0x00, 0x00, 0x26, 0x00, 0x3c, 0x24, 0x14, 0x00, 0x26, 0x3c,
    0x02, 0x1f, 0x64, 0x00, 0x23, 0x7f, 0x02, 0x1d, 0x7f, 0x0d,
    0x23, 0x00, 0x00, 0x1f, 0x00, 0x1b, 0x1d, 0x00, 0x10, 0x26,
    0x00, 0x00, 0x24, 0x00, 0x3c, 0x1f, 0x64, 0x00, 0x24, 0x58,
    0x00, 0x26, 0x39, 0x02, 0x1d, 0x7f, 0x00, 0x23, 0x7f, 0x0d,
    0x1f, 0x00, 0x02, 0x23, 0x00, 0x19, 0x1d, 0x00, 0x12, 0x26,
    0x00, 0x00, 0x24, 0x00, 0x3c, 0x1f, 0x64, 0x00, 0x24, 0x4e,
    0x00, 0x3b, 0x58, 0x00, 0x26, 0x58, 0x04, 0x23, 0x7f, 0x06,
    0x26, 0x00, 0x00, 0x26, 0x4c, 0x05, 0x1f, 0x00, 0x04, 0x23,
    0x00, 0x01, 0x26, 0x00, 0x00, 0x26, 0x32, 0x0a, 0x26, 0x00,
    0x00, 0x26, 0x3f, 0x0a, 0x26, 0x00, 0x00, 0x26, 0x3d, 0x0a,
    0x26, 0x00, 0x00, 0x26, 0x2c, 0x0a, 0x26, 0x00, 0x00, 0x3b,
    0x00, 0x00, 0x24, 0x00, 0x00, 0x26, 0x3d, 0x0a, 0x26, 0x00,
    0x00, 0x26, 0x3d, 0x0a, 0x26, 0x00, 0x00, 0x26, 0x46, 0x0a,
    0x26, 0x00, 0x00, 0x26, 0x4e, 0x0a, 0x26, 0x00, 0x00, 0x26,
    0x46, 0x0a, 0x26, 0x00, 0x00, 0x26, 0x61, 0x0a, 0x26, 0x00,
    0x00, 0x1f, 0x64, 0x00, 0x1d, 0x7f, 0x00, 0x24, 0x50, 0x00,
    0x3b, 0x58, 0x0f, 0x1f, 0x00, 0x19, 0x1d, 0x00, 0x14, 0x24,
    0x00, 0x00, 0x3b, 0x00, 0x39, 0x1f, 0x64, 0x03, 0x1d, 0x7f,
    0x00, 0x24, 0x3b, 0x00, 0x26, 0x34, 0x02, 0x23, 0x7f, 0x0a,
    0x1f, 0x00, 0x05, 0x23, 0x00, 0x17, 0x1d, 0x00, 0x14, 0x24,
    0x00, 0x00, 0x26, 0x00, 0x37, 0x1f, 0x64, 0x05, 0x1d, 0x7f,
    0x00, 0x24, 0x2e, 0x00, 0x26, 0x33, 0x04, 0x23, 0x7f, 0x06,
    0x1f, 0x00, 0x09, 0x23, 0x00, 0x15, 0x1d, 0x00, 0x14, 0x24,
    0x00, 0x00, 0x26, 0x00, 0x37, 0x1f, 0x64, 0x02, 0x1d, 0x7f,
    0x03, 0x24, 0x3a, 0x00, 0x26, 0x1b, 0x04, 0x23, 0x7f, 0x06,
    0x1f, 0x00, 0x09, 0x23, 0x00, 0x12, 0x1d, 0x00, 0x17, 0x24,
    0x00, 0x00, 0x26, 0x00, 0x37, 0x1f, 0x64, 0x05, 0x1d, 0x7f,
    0x00, 0x24, 0x17, 0x00, 0x26, 0x16, 0x02, 0x23, 0x7f, 0x08,
    0x1f, 0x00, 0x07, 0x23, 0x00, 0x17, 0x1d, 0x00, 0x14, 0x24,
    0x00, 0x00, 0x26, 0x00, 0x39, 0x1f, 0x64, 0x03, 0x1d, 0x7f,
    0x00, 0x24, 0x4f, 0x00, 0x3b, 0x58, 0x00, 0x26, 0x45, 0x04,
    0x36, 0x64, 0x02, 0x23, 0x7f, 0x04, 0x26, 0x00, 0x00, 0x26,
    0x4e, 0x02, 0x1f, 0x00, 0x07, 0x36, 0x00, 0x01, 0x26, 0x00,
    0x00, 0x26, 0x3d, 0x01, 0x23, 0x00, 0x09, 0x26, 0x00, 0x00,
    0x26, 0x3d, 0x0a, 0x26, 0x00, 0x00, 0x1d, 0x00, 0x00, 0x26,
    0x37, 0x0a, 0x26, 0x00, 0x00, 0x26, 0x43, 0x0a, 0x26, 0x00,
    0x00, 0x24, 0x00, 0x00, 0x3b, 0x00, 0x00, 0x26, 0x45, 0x0a,
    0x26, 0x00, 0x00, 0x26, 0x37, 0x0a, 0x26, 0x00, 0x00, 0x26,
    0x31, 0x0a, 0x26, 0x00, 0x00, 0x26, 0x1e, 0x0a, 0x26, 0x00,
    0x00, 0x26, 0x3f, 0x0a, 0x26, 0x00, 0x00, 0x26, 0x32, 0x07,
    0x36, 0x64, 0x00, 0x31, 0x5a, 0x03, 0x26, 0x00, 0x00, 0x24,
    0x58, 0x00, 0x3b, 0x58, 0x00, 0x26, 0x60, 0x02, 0x1f, 0x64,
    0x00, 0x1d, 0x7f, 0x04, 0x23, 0x7f, 0x04, 0x26, 0x00, 0x02,
    0x36, 0x00, 0x05, 0x1f, 0x00, 0x04, 0x23, 0x00, 0x10, 0x31,
    0x00, 0x05, 0x1d, 0x00, 0x12, 0x3b, 0x00, 0x00, 0x24, 0x00,
    0x39, 0x1f, 0x64, 0x03, 0x36, 0x64, 0x00, 0x24, 0x4f, 0x00,
    0x3b, 0x58, 0x00, 0x26, 0x4e, 0x02, 0x1d, 0x7f, 0x02, 0x23,
    0x7f, 0x06, 0x26, 0x00, 0x00, 0x26, 0x46, 0x02, 0x1f, 0x00,
    0x03, 0x36, 0x00, 0x04, 0x23, 0x00, 0x01, 0x26, 0x00, 0x00,
    0x26, 0x2b, 0x0a, 0x26, 0x00, 0x00, 0x26, 0x32, 0x0a, 0x26,
    0x00, 0x00, 0x26, 0x37, 0x02, 0x1d, 0x00, 0x08, 0x26, 0x00,
    0x00, 0x26, 0x2c, 0x0a, 0x26, 0x00, 0x00, 0x24, 0x00, 0x00,
    0x3b, 0x00, 0x00, 0x26, 0x2c, 0x0a, 0x26, 0x00, 0x00, 0x26,
    0x2c, 0x0a, 0x26, 0x00, 0x00, 0x26, 0x2c, 0x0a, 0x26, 0x00,
    0x00, 0x26, 0x32, 0x0a, 0x26, 0x00, 0x00, 0x26, 0x1b, 0x0a,
    0x26, 0x00, 0x00, 0x26, 0x37, 0x05, 0x31, 0x5a, 0x05, 0x26,
    0x00, 0x00, 0x1d, 0x7f, 0x00, 0x24, 0x58, 0x00, 0x3b, 0x58,
    0x00, 0x26, 0x69, 0x02, 0x36, 0x64, 0x02, 0x1f, 0x64, 0x02,
    0x23, 0x7f, 0x04, 0x26, 0x00, 0x07, 0x36, 0x00, 0x02, 0x1f,
    0x00, 0x02, 0x23, 0x00, 0x0e, 0x31, 0x00, 0x05, 0x1d, 0x00,
    0x14, 0x3b, 0x00, 0x00, 0x24, 0x00, 0x3c, 0x1f, 0x64, 0x00,
    0x1d, 0x7f, 0x00, 0x24, 0x58, 0x00, 0x3b, 0x58, 0x00, 0x26,
    0x58, 0x02, 0x36, 0x64, 0x02, 0x23, 0x7f, 0x06, 0x26, 0x00,
    0x00, 0x26, 0x24, 0x05, 0x1f, 0x00, 0x02, 0x36, 0x00, 0x02,
    0x23, 0x00, 0x01, 0x26, 0x00, 0x00, 0x26, 0x46, 0x0a, 0x26,
    0x00, 0x00, 0x26, 0x37, 0x0a, 0x26, 0x00, 0x00, 0x1d, 0x00,
    0x00, 0x26, 0x37, 0x0a, 0x26, 0x00, 0x00, 0x26, 0x31, 0x0a,
    0x26, 0x00, 0x00, 0x24, 0x00, 0x00, 0x3b, 0x00, 0x00, 0x26,
    0x32, 0x0a, 0x26, 0x00, 0x00, 0x26, 0x36, 0x0a, 0x26, 0x00,
    0x00, 0x26, 0x1b, 0x0a, 0x26, 0x00, 0x00, 0x26, 0x3d, 0x0a,
    0x26, 0x00, 0x00, 0x26, 0x36, 0x0a, 0x26, 0x00, 0x00, 0x26,
    0x3d, 0x07, 0x36, 0x64, 0x00, 0x31, 0x5a, 0x03, 0x26, 0x00,
    0x00, 0x1f, 0x64, 0x00, 0x1d, 0x7f, 0x00, 0x24, 0x58, 0x00,
    0x3b, 0x58, 0x00, 0x26, 0x61, 0x04, 0x23, 0x7f, 0x06, 0x26,
    0x00, 0x02, 0x36, 0x00, 0x03, 0x1f, 0x00, 0x04, 0x23, 0x00,
    0x12, 0x31, 0x00, 0x03, 0x1d, 0x00, 0x14, 0x3b, 0x00, 0x00,
    0x24, 0x00, 0x37, 0x1d, 0x7f, 0x05, 0x1f, 0x64, 0x00, 0x39,
    0x5a, 0x00, 0x31, 0x5a, 0x00, 0x24, 0x58, 0x00, 0x26, 0x15,
    0x00, 0x3b, 0x58, 0x04, 0x36, 0x64, 0x00, 0x37, 0x64, 0x00,
    0x21, 0x7f, 0x00, 0x23, 0x7f, 0x0b, 0x1f, 0x00, 0x04, 0x37,
    0x00, 0x00, 0x23, 0x00, 0x00, 0x36, 0x00, 0x00, 0x21, 0x00,
    0x10, 0x1d, 0x00, 0x05, 0x31, 0x00, 0x00, 0x39, 0x00, 0x14,
    0x3b, 0x00, 0x00, 0x24, 0x00, 0x00, 0x26, 0x00, 0x00, 0xff,
    0x2f, 0x00, 0x4d, 0x54, 0x72, 0x6b, 0x00, 0x00, 0x05, 0xf4,
    0x00, 0xff, 0x03, 0x06, 0x53, 0x74, 0x72, 0x69, 0x6e, 0x67,
    0x3c, 0xbb, 0x49, 0x50, 0x04, 0x49, 0x51, 0x02, 0x49, 0x52,
    0x07, 0x49, 0x53, 0x66, 0x00, 0x00, 0x01, 0x20, 0x00, 0x01,
    0xcb, 0x31, 0x01, 0xbb, 0x0a, 0x15, 0x3e, 0x5b, 0x75, 0x89,
    0x2f, 0x9b, 0x3c, 0x53, 0x81, 0x70, 0x3c, 0x00, 0x00, 0x3b,
    0x59, 0x32, 0x3b, 0x00, 0x81, 0x03, 0x4a, 0x75, 0x00, 0x3e,
    0x75, 0x19, 0x3e, 0x00, 0x00, 0x4a, 0x00, 0x24, 0x3e, 0x6e,
    0x00, 0x4f, 0x75, 0x00, 0x43, 0x75, 0x81, 0x11, 0x43, 0x00,
    0x00, 0x4f, 0x00, 0x0f, 0x3e, 0x00, 0x13, 0x4f, 0x6e, 0x00,
    0x43, 0x6e, 0x02, 0x3e, 0x67, 0x10, 0x43, 0x00, 0x00, 0x4f,
    0x00, 0x0c, 0x3e, 0x00, 0x1f, 0x40, 0x59, 0x01, 0x4f, 0x6e,
    0x00, 0x43, 0x6e, 0x3b, 0x40, 0x00, 0x02, 0x43, 0x00, 0x00,
    0x4f, 0x00, 0x1a, 0x4f, 0x75, 0x00, 0x43, 0x75, 0x02, 0x40,
    0x59, 0x10, 0x43, 0x00, 0x00, 0x4f, 0x00, 0x07, 0x40, 0x00,
    0x07, 0x3c, 0x61, 0x00, 0x4a, 0x75, 0x00, 0x3e, 0x75, 0x2a,
    0x3e, 0x00, 0x00, 0x4a, 0x00, 0x10, 0x4c, 0x75, 0x00, 0x40,
    0x75, 0x11, 0x40, 0x00, 0x00, 0x4c, 0x00, 0x0d, 0x4e, 0x67,
    0x00, 0x42, 0x67, 0x0c, 0x3c, 0x00, 0x04, 0x42, 0x00, 0x00,
    0x4e, 0x00, 0x0e, 0x4f, 0x6e, 0x00, 0x43, 0x6e, 0x01, 0x3e,
    0x67, 0x4b, 0x43, 0x00, 0x00, 0x4f, 0x00, 0x15, 0x3e, 0x00,
    0x17, 0x4f, 0x75, 0x00, 0x43, 0x75, 0x03, 0x3e, 0x6e, 0x37,
    0x3e, 0x00, 0x0a, 0x43, 0x00, 0x00, 0x4f, 0x00, 0x71, 0x43,
    0x61, 0x01, 0x53, 0x75, 0x00, 0x47, 0x75, 0x18, 0x47, 0x00,
    0x00, 0x53, 0x00, 0x0d, 0x43, 0x00, 0x18, 0x4f, 0x75, 0x00,
    0x43, 0x75, 0x00, 0x3e, 0x61, 0x2b, 0x43, 0x00, 0x00, 0x4f,
    0x00, 0x0f, 0x51, 0x61, 0x00, 0x45, 0x61, 0x13, 0x45, 0x00,
    0x00, 0x51, 0x00, 0x00, 0x3e, 0x00, 0x0b, 0x53, 0x6e, 0x00,
    0x47, 0x6e, 0x11, 0x47, 0x00, 0x00, 0x53, 0x00, 0x0c, 0x45,
    0x59, 0x02, 0x56, 0x75, 0x00, 0x4a, 0x75, 0x58, 0x4a, 0x00,
    0x00, 0x56, 0x00, 0x12, 0x45, 0x00, 0x0d, 0x56, 0x75, 0x00,
    0x4a, 0x75, 0x02, 0x43, 0x55, 0x43, 0x4a, 0x00, 0x00, 0x56,
    0x00, 0x17, 0x43, 0x00, 0x1b, 0x43, 0x67, 0x02, 0x53, 0x75,
    0x00, 0x47, 0x75, 0x2e, 0x43, 0x00, 0x12, 0x47, 0x00, 0x00,
    0x53, 0x00, 0x18, 0x53, 0x6e, 0x00, 0x47, 0x6e, 0x01, 0x43,
    0x59, 0x14, 0x47, 0x00, 0x00, 0x53, 0x00, 0x08, 0x43, 0x00,
    0x02, 0x40, 0x61, 0x02, 0x4f, 0x75, 0x00, 0x43, 0x75, 0x42,
    0x43, 0x00, 0x00, 0x4f, 0x00, 0x01, 0x40, 0x00, 0x15, 0x53,
    0x75, 0x00, 0x47, 0x75, 0x00, 0x43, 0x59, 0x13, 0x47, 0x00,
    0x00, 0x53, 0x00, 0x05, 0x43, 0x00, 0x05, 0x43, 0x6e, 0x03,
    0x56, 0x75, 0x00, 0x4a, 0x75, 0x3d, 0x4a, 0x00, 0x00, 0x56,
    0x00, 0x00, 0x43, 0x00, 0x1b, 0x43, 0x61, 0x01, 0x53, 0x75,
    0x00, 0x47, 0x75, 0x14, 0x47, 0x00, 0x00, 0x53, 0x00, 0x08,
    0x43, 0x00, 0x00, 0x40, 0x67, 0x03, 0x51, 0x75, 0x00, 0x45,
    0x75, 0x4f, 0x45, 0x00, 0x00, 0x51, 0x00, 0x11, 0x40, 0x00,
    0x16, 0x51, 0x75, 0x00, 0x45, 0x75, 0x02, 0x42, 0x61, 0x81,
    0x08, 0x45, 0x00, 0x00, 0x51, 0x00, 0x3a, 0x42, 0x00, 0x2c,
    0x43, 0x4f, 0x01, 0x58, 0x67, 0x00, 0x4c, 0x67, 0x53, 0x4c,
    0x00, 0x00, 0x58, 0x00, 0x08, 0x43, 0x00, 0x1b, 0x43, 0x53,
    0x02, 0x56, 0x67, 0x00, 0x4a, 0x67, 0x58, 0x4a, 0x00, 0x00,
    0x56, 0x00, 0x08, 0x43, 0x00, 0x17, 0x51, 0x75, 0x00, 0x45,
    0x75, 0x02, 0x3e, 0x59, 0x59, 0x45, 0x00, 0x00, 0x51, 0x00,
    0x14, 0x3e, 0x00, 0x09, 0x43, 0x55, 0x02, 0x53, 0x78, 0x00,
    0x47, 0x78, 0x2f, 0x47, 0x00, 0x00, 0x53, 0x00, 0x0e, 0x43,
    0x00, 0x3a, 0x43, 0x61, 0x01, 0x56, 0x75, 0x00, 0x4a, 0x75,
    0x17, 0x43, 0x00, 0x01, 0x4a, 0x00, 0x00, 0x56, 0x00, 0x21,
    0x53, 0x75, 0x00, 0x47, 0x75, 0x01, 0x43, 0x55, 0x1e, 0x47,
    0x00, 0x00, 0x53, 0x00, 0x20, 0x43, 0x00, 0x3b, 0x56, 0x6e,
    0x00, 0x4a, 0x6e, 0x01, 0x43, 0x55, 0x1a, 0x4a, 0x00, 0x00,
    0x56, 0x00, 0x07, 0x43, 0x00, 0x18, 0x42, 0x59, 0x01, 0x53,
    0x78, 0x00, 0x47, 0x78, 0x28, 0x47, 0x00, 0x00, 0x53, 0x00,
    0x13, 0x51, 0x61, 0x00, 0x45, 0x61, 0x13, 0x45, 0x00, 0x00,
    0x51, 0x00, 0x0e, 0x53, 0x53, 0x00, 0x47, 0x53, 0x05, 0x42,
    0x00, 0x10, 0x47, 0x00, 0x00, 0x53, 0x00, 0x08, 0x40, 0x55,
    0x01, 0x4f, 0x75, 0x00, 0x43, 0x75, 0x5f, 0x40, 0x00, 0x0c,
    0x43, 0x00, 0x00, 0x4f, 0x00, 0x0b, 0x53, 0x75, 0x00, 0x47,
    0x75, 0x01, 0x42, 0x61, 0x81, 0x2a, 0x47, 0x00, 0x00, 0x53,
    0x00, 0x1d, 0x42, 0x00, 0x27, 0x3e, 0x46, 0x02, 0x4a, 0x46,
    0x00, 0x3e, 0x46, 0x3b, 0x4a, 0x00, 0x00, 0x3e, 0x00, 0x1d,
    0x4c, 0x4c, 0x00, 0x40, 0x4c, 0x03, 0x3e, 0x00, 0x12, 0x40,
    0x00, 0x00, 0x4c, 0x00, 0x09, 0x4f, 0x4e, 0x00, 0x43, 0x4e,
    0x01, 0x3e, 0x4e, 0x16, 0x3e, 0x00, 0x00, 0x43, 0x00, 0x00,
    0x4f, 0x00, 0x28, 0x4f, 0x52, 0x00, 0x43, 0x52, 0x00, 0x3e,
    0x52, 0x15, 0x43, 0x00, 0x00, 0x4f, 0x00, 0x18, 0x3e, 0x00,
    0x0d, 0x53, 0x55, 0x00, 0x47, 0x55, 0x02, 0x43, 0x55, 0x3b,
    0x47, 0x00, 0x00, 0x53, 0x00, 0x16, 0x43, 0x00, 0x07, 0x53,
    0x5a, 0x00, 0x47, 0x5a, 0x01, 0x43, 0x5a, 0x13, 0x47, 0x00,
    0x00, 0x53, 0x00, 0x02, 0x43, 0x00, 0x07, 0x56, 0x5c, 0x00,
    0x4a, 0x5c, 0x03, 0x43, 0x5c, 0x15, 0x4a, 0x00, 0x00, 0x56,
    0x00, 0x10, 0x43, 0x00, 0x16, 0x56, 0x60, 0x00, 0x4a, 0x60,
    0x01, 0x43, 0x60, 0x17, 0x4a, 0x00, 0x00, 0x56, 0x00, 0x0c,
    0x43, 0x00, 0x16, 0x51, 0x78, 0x00, 0x45, 0x78, 0x03, 0x40,
    0x59, 0x16, 0x45, 0x00, 0x00, 0x51, 0x00, 0x0d, 0x40, 0x00,
    0x17, 0x51, 0x6e, 0x00, 0x45, 0x6e, 0x02, 0x40, 0x55, 0x0f,
    0x45, 0x00, 0x00, 0x51, 0x00, 0x05, 0x40, 0x00, 0x07, 0x51,
    0x6e, 0x00, 0x45, 0x6e, 0x00, 0x40, 0x53, 0x13, 0x45, 0x00,
    0x00, 0x51, 0x00, 0x01, 0x40, 0x00, 0x0c, 0x4c, 0x78, 0x00,
    0x40, 0x78, 0x00, 0x3d, 0x59, 0x5a, 0x40, 0x00, 0x00, 0x4c,
    0x00, 0x0f, 0x3d, 0x00, 0x0f, 0x51, 0x75, 0x00, 0x45, 0x75,
    0x00, 0x40, 0x61, 0x81, 0x13, 0x45, 0x00, 0x00, 0x51, 0x00,
    0x1d, 0x40, 0x00, 0x04, 0x4a, 0x75, 0x00, 0x3e, 0x75, 0x01,
    0x3e, 0x59, 0x18, 0x3e, 0x00, 0x00, 0x4a, 0x00, 0x0d, 0x3e,
    0x00, 0x16, 0x4f, 0x75, 0x00, 0x43, 0x75, 0x01, 0x3e, 0x61,
    0x81, 0x0e, 0x43, 0x00, 0x00, 0x4f, 0x00, 0x05, 0x3e, 0x00,
    0x1e, 0x4f, 0x6e, 0x00, 0x43, 0x6e, 0x02, 0x3e, 0x67, 0x1a,
    0x43, 0x00, 0x00, 0x4f, 0x00, 0x0f, 0x3e, 0x00, 0x12, 0x53,
    0x78, 0x00, 0x47, 0x78, 0x01, 0x43, 0x53, 0x81, 0x0f, 0x47,
    0x00, 0x00, 0x53, 0x00, 0x0b, 0x43, 0x00, 0x1a, 0x43, 0x61,
    0x01, 0x53, 0x75, 0x00, 0x47, 0x75, 0x19, 0x47, 0x00, 0x00,
    0x53, 0x00, 0x08, 0x43, 0x00, 0x19, 0x56, 0x75, 0x00, 0x4a,
    0x75, 0x00, 0x45, 0x55, 0x81, 0x25, 0x4a, 0x00, 0x00, 0x56,
    0x00, 0x19, 0x45, 0x00, 0x32, 0x4f, 0x6e, 0x00, 0x43, 0x6e,
    0x02, 0x3e, 0x61, 0x3f, 0x43, 0x00, 0x00, 0x4f, 0x00, 0x18,
    0x53, 0x6e, 0x00, 0x47, 0x6e, 0x0c, 0x3e, 0x00, 0x06, 0x47,
    0x00, 0x00, 0x53, 0x00, 0x0d, 0x56, 0x75, 0x00, 0x4a, 0x75,
    0x02, 0x47, 0x67, 0x17, 0x4a, 0x00, 0x00, 0x56, 0x00, 0x08,
    0x47, 0x00, 0x1b, 0x56, 0x6e, 0x00, 0x4a, 0x6e, 0x01, 0x47,
    0x67, 0x15, 0x4a, 0x00, 0x00, 0x56, 0x00, 0x05, 0x47, 0x00,
    0x21, 0x47, 0x6e, 0x02, 0x58, 0x6e, 0x00, 0x4c, 0x6e, 0x46,
    0x47, 0x00, 0x1b, 0x4c, 0x00, 0x00, 0x58, 0x00, 0x14, 0x56,
    0x6e, 0x00, 0x4a, 0x6e, 0x02, 0x47, 0x61, 0x2f, 0x47, 0x00,
    0x00, 0x4a, 0x00, 0x00, 0x56, 0x00, 0x48, 0x53, 0x75, 0x00,
    0x47, 0x75, 0x01, 0x43, 0x67, 0x3b, 0x47, 0x00, 0x00, 0x53,
    0x00, 0x0b, 0x43, 0x00, 0x14, 0x4f, 0x67, 0x00, 0x43, 0x67,
    0x00, 0x3e, 0x61, 0x13, 0x43, 0x00, 0x00, 0x4f, 0x00, 0x04,
    0x3e, 0x00, 0x08, 0x56, 0x6e, 0x00, 0x4a, 0x6e, 0x00, 0x47,
    0x59, 0x10, 0x47, 0x00, 0x03, 0x4a, 0x00, 0x00, 0x56, 0x00,
    0x14, 0x56, 0x67, 0x00, 0x4a, 0x67, 0x00, 0x47, 0x67, 0x11,
    0x4a, 0x00, 0x00, 0x56, 0x00, 0x04, 0x47, 0x00, 0x12, 0x56,
    0x6e, 0x00, 0x4a, 0x6e, 0x00, 0x47, 0x67, 0x0f, 0x47, 0x00,
    0x05, 0x4a, 0x00, 0x00, 0x56, 0x00, 0x15, 0x53, 0x75, 0x00,
    0x47, 0x75, 0x00, 0x43, 0x75, 0x45, 0x43, 0x00, 0x09, 0x47,
    0x00, 0x00, 0x53, 0x00, 0x28, 0x3e, 0x6e, 0x01, 0x4f, 0x67,
    0x00, 0x43, 0x67, 0x3b, 0x43, 0x00, 0x00, 0x4f, 0x00, 0x0b,
    0x3e, 0x00, 0x33, 0x4a, 0x78, 0x00, 0x3e, 0x78, 0x01, 0x3c,
    0x67, 0x55, 0x3e, 0x00, 0x00, 0x4a, 0x00, 0x03, 0x3c, 0x00,
    0x1d, 0x4f, 0x75, 0x00, 0x43, 0x75, 0x00, 0x3e, 0x61, 0x35,
    0x43, 0x00, 0x00, 0x4f, 0x00, 0x05, 0x3e, 0x00, 0x3e, 0x43,
    0x59, 0x02, 0x53, 0x75, 0x00, 0x47, 0x75, 0x34, 0x43, 0x00,
    0x05, 0x47, 0x00, 0x00, 0x53, 0x00, 0x21, 0x4f, 0x67, 0x00,
    0x43, 0x67, 0x00, 0x3e, 0x67, 0x13, 0x3e, 0x00, 0x02, 0x43,
    0x00, 0x00, 0x4f, 0x00, 0x07, 0x56, 0x75, 0x00, 0x4a, 0x75,
    0x02, 0x47, 0x61, 0x0f, 0x4a, 0x00, 0x00, 0x56, 0x00, 0x03,
    0x47, 0x00, 0x16, 0x56, 0x75, 0x00, 0x4a, 0x75, 0x00, 0x47,
    0x61, 0x0a, 0x47, 0x00, 0x05, 0x4a, 0x00, 0x00, 0x56, 0x00,
    0x18, 0x56, 0x6e, 0x00, 0x4a, 0x6e, 0x01, 0x47, 0x78, 0x12,
    0x4a, 0x00, 0x00, 0x56, 0x00, 0x01, 0x47, 0x00, 0x15, 0x53,
    0x78, 0x00, 0x47, 0x78, 0x01, 0x43, 0x6e, 0x46, 0x43, 0x00,
    0x1a, 0x47, 0x00, 0x00, 0x53, 0x00, 0x18, 0x4f, 0x75, 0x00,
    0x43, 0x75, 0x00, 0x3e, 0x6e, 0x2f, 0x43, 0x00, 0x00, 0x4f,
    0x00, 0x2b, 0x3e, 0x00, 0x1d, 0x4a, 0x75, 0x00, 0x3e, 0x75,
    0x00, 0x3c, 0x67, 0x57, 0x3e, 0x00, 0x00, 0x4a, 0x00, 0x17,
    0x3c, 0x00, 0x09, 0x4f, 0x75, 0x00, 0x43, 0x75, 0x01, 0x3e,
    0x61, 0x3a, 0x43, 0x00, 0x00, 0x4f, 0x00, 0x0f, 0x3e, 0x00,
    0x2d, 0x56, 0x6e, 0x00, 0x4a, 0x6e, 0x02, 0x3c, 0x67, 0x56,
    0x4a, 0x00, 0x00, 0x56, 0x00, 0x16, 0x3c, 0x00, 0x0a, 0x3e,
    0x67, 0x02, 0x5b, 0x78, 0x00, 0x4f, 0x78, 0x2e, 0x3e, 0x00,
    0x0b, 0x4f, 0x00, 0x00, 0x5b, 0x00, 0x3f, 0x56, 0x75, 0x00,
    0x4a, 0x75, 0x01, 0x3c, 0x59, 0x5f, 0x4a, 0x00, 0x00, 0x56,
    0x00, 0x0c, 0x3c, 0x00, 0x0b, 0x5b, 0x6e, 0x00, 0x4f, 0x6e,
    0x02, 0x3e, 0x59, 0x2b, 0x4f, 0x00, 0x00, 0x5b, 0x00, 0x2a,
    0x3e, 0x00, 0x22, 0x5b, 0x75, 0x00, 0x4f, 0x75, 0x00, 0x3e,
    0x55, 0x78, 0x4f, 0x00, 0x00, 0x5b, 0x00, 0x07, 0x3e, 0x00,
    0x00, 0xff, 0x2f, 0x00, 0x4d, 0x54, 0x72, 0x6b, 0x00, 0x00,
    0x06, 0xf2, 0x00, 0xff, 0x03, 0x0a, 0x4c, 0x6f, 0x77, 0x20,
    0x53, 0x74, 0x72, 0x69, 0x6e, 0x67, 0x81, 0x34, 0xbc, 0x00,
    0x00, 0x01, 0x20, 0x00, 0x01, 0xcc, 0x31, 0x01, 0xbc, 0x0a,
    0x6d, 0x39, 0x5b, 0x70, 0x81, 0x70, 0x9c, 0x43, 0x59, 0x34,
    0x43, 0x00, 0x23, 0x47, 0x62, 0x0f, 0x47, 0x00, 0x12, 0x4a,
    0x67, 0x15, 0x4a, 0x00, 0x25, 0x4a, 0x6e, 0x16, 0x4a, 0x00,
    0x27, 0x4c, 0x67, 0x4e, 0x4c, 0x00, 0x2b, 0x4a, 0x67, 0x3d,
    0x4a, 0x00, 0x38, 0x47, 0x66, 0x38, 0x47, 0x00, 0x24, 0x43,
    0x61, 0x11, 0x43, 0x00, 0x0c, 0x4a, 0x6e, 0x11, 0x4a, 0x00,
    0x17, 0x4a, 0x67, 0x10, 0x4a, 0x00, 0x18, 0x4a, 0x6e, 0x11,
    0x4a, 0x00, 0x18, 0x47, 0x78, 0x43, 0x47, 0x00, 0x33, 0x43,
    0x6e, 0x4a, 0x43, 0x00, 0x31, 0x26, 0x73, 0x00, 0x32, 0x73,
    0x01, 0x36, 0x61, 0x14, 0x32, 0x00, 0x00, 0x26, 0x00, 0x13,
    0x26, 0x69, 0x00, 0x32, 0x69, 0x12, 0x32, 0x00, 0x00, 0x26,
    0x00, 0x17, 0x26, 0x69, 0x00, 0x32, 0x69, 0x13, 0x32, 0x00,
    0x00, 0x26, 0x00, 0x13, 0x26, 0x7c, 0x00, 0x32, 0x7c, 0x14,
    0x32, 0x00, 0x00, 0x26, 0x00, 0x17, 0x26, 0x7c, 0x00, 0x32,
    0x7c, 0x14, 0x32, 0x00, 0x00, 0x26, 0x00, 0x12, 0x26, 0x73,
    0x00, 0x32, 0x73, 0x15, 0x32, 0x00, 0x00, 0x26, 0x00, 0x12,
    0x2b, 0x7c, 0x00, 0x37, 0x7c, 0x00, 0x37, 0x6e, 0x02, 0x36,
    0x00, 0x3a, 0x37, 0x00, 0x1d, 0x2b, 0x00, 0x00, 0x37, 0x00,
    0x81, 0x18, 0x3b, 0x6e, 0x02, 0x1f, 0x73, 0x00, 0x2b, 0x73,
    0x6a, 0x2b, 0x00, 0x00, 0x1f, 0x00, 0x0c, 0x2b, 0x69, 0x00,
    0x37, 0x69, 0x1e, 0x3b, 0x00, 0x20, 0x3b, 0x75, 0x1e, 0x3b,
    0x00, 0x05, 0x37, 0x00, 0x00, 0x2b, 0x00, 0x17, 0x28, 0x7c,
    0x00, 0x34, 0x7c, 0x01, 0x3b, 0x78, 0x3c, 0x3b, 0x00, 0x1e,
    0x3b, 0x78, 0x0f, 0x34, 0x00, 0x00, 0x28, 0x00, 0x0d, 0x26,
    0x73, 0x00, 0x32, 0x73, 0x00, 0x39, 0x75, 0x02, 0x3b, 0x00,
    0x2a, 0x26, 0x00, 0x00, 0x32, 0x00, 0x13, 0x24, 0x7c, 0x00,
    0x30, 0x7c, 0x1b, 0x39, 0x00, 0x17, 0x30, 0x00, 0x00, 0x24,
    0x00, 0x09, 0x37, 0x75, 0x01, 0x23, 0x7c, 0x00, 0x2f, 0x7c,
    0x3b, 0x37, 0x00, 0x28, 0x2f, 0x00, 0x00, 0x23, 0x00, 0x14,
    0x1f, 0x73, 0x00, 0x2b, 0x73, 0x00, 0x3b, 0x75, 0x3c, 0x3b,
    0x00, 0x14, 0x2b, 0x00, 0x00, 0x1f, 0x00, 0x28, 0x2b, 0x4c,
    0x00, 0x37, 0x4c, 0x3b, 0x3e, 0x61, 0x1e, 0x3e, 0x00, 0x14,
    0x37, 0x00, 0x00, 0x2b, 0x00, 0x0b, 0x3b, 0x6e, 0x01, 0x2b,
    0x7c, 0x00, 0x37, 0x7c, 0x3b, 0x3b, 0x00, 0x16, 0x37, 0x00,
    0x00, 0x2b, 0x00, 0x25, 0x2a, 0x69, 0x00, 0x36, 0x69, 0x02,
    0x3e, 0x6e, 0x5a, 0x3e, 0x00, 0x05, 0x36, 0x00, 0x00, 0x2a,
    0x00, 0x19, 0x26, 0x73, 0x00, 0x32, 0x73, 0x00, 0x42, 0x75,
    0x5a, 0x42, 0x00, 0x0e, 0x32, 0x00, 0x00, 0x26, 0x00, 0x0f,
    0x2b, 0x7c, 0x00, 0x37, 0x7c, 0x01, 0x3e, 0x6e, 0x3c, 0x3e,
    0x00, 0x1c, 0x3e, 0x67, 0x0e, 0x37, 0x00, 0x00, 0x2b, 0x00,
    0x06, 0x3e, 0x00, 0x09, 0x28, 0x73, 0x00, 0x34, 0x73, 0x02,
    0x3b, 0x59, 0x3c, 0x3b, 0x00, 0x1f, 0x40, 0x59, 0x0a, 0x34,
    0x00, 0x00, 0x28, 0x00, 0x06, 0x40, 0x00, 0x0c, 0x3e, 0x78,
    0x02, 0x23, 0x7c, 0x00, 0x2f, 0x7c, 0x3a, 0x3e, 0x00, 0x1e,
    0x3e, 0x67, 0x10, 0x2f, 0x00, 0x00, 0x23, 0x00, 0x04, 0x3e,
    0x00, 0x09, 0x25, 0x7c, 0x00, 0x31, 0x7c, 0x03, 0x40, 0x6e,
    0x5a, 0x40, 0x00, 0x18, 0x31, 0x00, 0x00, 0x25, 0x00, 0x03,
    0x3e, 0x75, 0x01, 0x26, 0x7c, 0x00, 0x32, 0x7c, 0x81, 0x33,
    0x3e, 0x00, 0x03, 0x32, 0x00, 0x00, 0x26, 0x00, 0x39, 0x43,
    0x61, 0x02, 0x24, 0x73, 0x00, 0x30, 0x73, 0x58, 0x43, 0x00,
    0x0c, 0x30, 0x00, 0x00, 0x24, 0x00, 0x13, 0x3e, 0x75, 0x01,
    0x23, 0x69, 0x00, 0x2f, 0x69, 0x59, 0x3e, 0x00, 0x0b, 0x2f,
    0x00, 0x00, 0x23, 0x00, 0x13, 0x3c, 0x75, 0x01, 0x1e, 0x7c,
    0x00, 0x2a, 0x7c, 0x59, 0x3c, 0x00, 0x15, 0x2a, 0x00, 0x00,
    0x1e, 0x00, 0x09, 0x3e, 0x75, 0x02, 0x1f, 0x69, 0x00, 0x2b,
    0x69, 0x34, 0x2b, 0x00, 0x00, 0x1f, 0x00, 0x24, 0x3e, 0x00,
    0x1d, 0x2b, 0x69, 0x00, 0x37, 0x69, 0x02, 0x43, 0x67, 0x1e,
    0x43, 0x00, 0x00, 0x37, 0x00, 0x00, 0x2b, 0x00, 0x1f, 0x2b,
    0x7c, 0x00, 0x37, 0x7c, 0x00, 0x3e, 0x75, 0x1e, 0x3e, 0x00,
    0x1c, 0x37, 0x00, 0x00, 0x2b, 0x00, 0x3d, 0x2b, 0x69, 0x00,
    0x37, 0x69, 0x00, 0x43, 0x59, 0x1e, 0x43, 0x00, 0x0f, 0x37,
    0x00, 0x00, 0x2b, 0x00, 0x0e, 0x2a, 0x67, 0x00, 0x36, 0x67,
    0x00, 0x3f, 0x58, 0x6d, 0x36, 0x00, 0x00, 0x2a, 0x00, 0x0b,
    0x3f, 0x00, 0x00, 0x28, 0x69, 0x00, 0x34, 0x69, 0x00, 0x3b,
    0x64, 0x5a, 0x3b, 0x00, 0x13, 0x34, 0x00, 0x00, 0x28, 0x00,
    0x0b, 0x23, 0x7a, 0x00, 0x2f, 0x7a, 0x02, 0x3f, 0x75, 0x81,
    0x16, 0x3f, 0x00, 0x50, 0x2f, 0x00, 0x00, 0x23, 0x00, 0x07,
    0x3b, 0x4e, 0x02, 0xbc, 0x0b, 0x59, 0x00, 0x9c, 0x2b, 0x69,
    0x00, 0xbc, 0x0b, 0x59, 0x00, 0x9c, 0x37, 0x69, 0x0d, 0xbc,
    0x0b, 0x5a, 0x00, 0x0b, 0x5a, 0x0b, 0x0b, 0x5b, 0x00, 0x0b,
    0x5b, 0x0e, 0x0b, 0x5c, 0x00, 0x0b, 0x5c, 0x0e, 0x0b, 0x5d,
    0x00, 0x0b, 0x5d, 0x0a, 0x0b, 0x5e, 0x00, 0x0b, 0x5e, 0x0e,
    0x0b, 0x5f, 0x00, 0x0b, 0x5f, 0x0c, 0x0b, 0x60, 0x00, 0x0b,
    0x60, 0x06, 0x9c, 0x3b, 0x00, 0x07, 0xbc, 0x0b, 0x61, 0x00,
    0x0b, 0x61, 0x0d, 0x0b, 0x62, 0x00, 0x0b, 0x62, 0x07, 0x9c,
    0x3b, 0x4e, 0x05, 0xbc, 0x0b, 0x63, 0x00, 0x0b, 0x63, 0x0f,
    0x0b, 0x64, 0x00, 0x0b, 0x64, 0x08, 0x9c, 0x3b, 0x00, 0x04,
    0xbc, 0x0b, 0x65, 0x00, 0x0b, 0x65, 0x0e, 0x0b, 0x66, 0x00,
    0x0b, 0x66, 0x0b, 0x0b, 0x67, 0x00, 0x0b, 0x67, 0x03, 0x9c,
    0x3b, 0x52, 0x09, 0xbc, 0x0b, 0x68, 0x00, 0x0b, 0x68, 0x0c,
    0x0b, 0x69, 0x00, 0x0b, 0x69, 0x0f, 0x0b, 0x6a, 0x00, 0x0b,
    0x6a, 0x09, 0x9c, 0x3b, 0x00, 0x02, 0x37, 0x00, 0x00, 0x2b,
    0x00, 0x03, 0xbc, 0x0b, 0x6b, 0x00, 0x0b, 0x6b, 0x07, 0x9c,
    0x29, 0x64, 0x00, 0x35, 0x64, 0x02, 0x3e, 0x58, 0x02, 0xbc,
    0x0b, 0x6c, 0x00, 0x0b, 0x6c, 0x0c, 0x0b, 0x6d, 0x00, 0x0b,
    0x6d, 0x0c, 0x0b, 0x6e, 0x00, 0x0b, 0x6e, 0x0c, 0x0b, 0x6f,
    0x00, 0x0b, 0x6f, 0x0f, 0x0b, 0x70, 0x00, 0x0b, 0x70, 0x08,
    0x9c, 0x3e, 0x00, 0x06, 0xbc, 0x0b, 0x71, 0x00, 0x0b, 0x71,
    0x0a, 0x0b, 0x72, 0x00, 0x0b, 0x72, 0x0b, 0x9c, 0x3e, 0x5a,
    0x01, 0xbc, 0x0b, 0x73, 0x00, 0x0b, 0x73, 0x0f, 0x0b, 0x74,
    0x00, 0x0b, 0x74, 0x0d, 0x9c, 0x3e, 0x00, 0x00, 0xbc, 0x0b,
    0x75, 0x00, 0x0b, 0x75, 0x02, 0x9c, 0x43, 0x5c, 0x07, 0xbc,
    0x0b, 0x76, 0x00, 0x0b, 0x76, 0x10, 0x0b, 0x77, 0x00, 0x0b,
    0x77, 0x0a, 0x9c, 0x43, 0x00, 0x02, 0xbc, 0x0b, 0x78, 0x00,
    0x0b, 0x78, 0x0b, 0x0b, 0x79, 0x00, 0x0b, 0x79, 0x0d, 0x0b,
    0x7a, 0x00, 0x0b, 0x7a, 0x02, 0x9c, 0x43, 0x60, 0x0d, 0xbc,
    0x0b, 0x7b, 0x00, 0x0b, 0x7b, 0x09, 0x0b, 0x7c, 0x00, 0x0b,
    0x7c, 0x07, 0x9c, 0x43, 0x00, 0x09, 0xbc, 0x0b, 0x7d, 0x00,
    0x0b, 0x7d, 0x01, 0x9c, 0x35, 0x00, 0x00, 0x29, 0x00, 0x0c,
    0xbc, 0x0b, 0x7e, 0x00, 0x0b, 0x7e, 0x0a, 0x9c, 0x28, 0x73,
    0x00, 0x34, 0x73, 0x00, 0x3d, 0x61, 0x02, 0xbc, 0x0b, 0x7f,
    0x00, 0x0b, 0x7f, 0x1c, 0x9c, 0x34, 0x00, 0x00, 0x28, 0x00,
    0x0a, 0x3d, 0x00, 0x11, 0x3d, 0x4c, 0x01, 0x26, 0x56, 0x00,
    0x32, 0x56, 0x11, 0x3d, 0x00, 0x0d, 0x32, 0x00, 0x00, 0x26,
    0x00, 0x00, 0x3d, 0x53, 0x15, 0x3d, 0x00, 0x08, 0x39, 0x55,
    0x02, 0x25, 0x56, 0x00, 0x31, 0x56, 0x1e, 0x31, 0x00, 0x00,
    0x25, 0x00, 0x1e, 0x23, 0x69, 0x00, 0x2f, 0x69, 0x1c, 0x39,
    0x00, 0x02, 0x2f, 0x00, 0x00, 0x23, 0x00, 0x1c, 0x3d, 0x61,
    0x01, 0x21, 0x60, 0x00, 0x2d, 0x60, 0x1e, 0x2d, 0x00, 0x00,
    0x21, 0x00, 0x1f, 0x1f, 0x69, 0x00, 0x2b, 0x69, 0x1e, 0x2b,
    0x00, 0x00, 0x1f, 0x00, 0x1f, 0x1e, 0x51, 0x00, 0x2a, 0x51,
    0x1e, 0x2a, 0x00, 0x00, 0x1e, 0x00, 0x0e, 0x3d, 0x00, 0x0d,
    0x39, 0x53, 0x02, 0x26, 0x69, 0x00, 0x32, 0x69, 0x1e, 0x32,
    0x00, 0x00, 0x26, 0x00, 0x07, 0x39, 0x00, 0x16, 0x3b, 0x6e,
    0x02, 0x2b, 0x7c, 0x00, 0x37, 0x7c, 0x81, 0x05, 0x3b, 0x00,
    0x1c, 0x37, 0x00, 0x00, 0x2b, 0x00, 0x13, 0x2b, 0x73, 0x00,
    0x37, 0x73, 0x00, 0x3b, 0x55, 0x1d, 0x37, 0x00, 0x00, 0x2b,
    0x00, 0x08, 0x3b, 0x00, 0x16, 0x2b, 0x7f, 0x00, 0x37, 0x7f,
    0x00, 0x3e, 0x67, 0x75, 0x3e, 0x00, 0x1e, 0x37, 0x00, 0x00,
    0x2b, 0x00, 0x1f, 0x2b, 0x7c, 0x00, 0x37, 0x7c, 0x02, 0x3e,
    0x61, 0x28, 0x37, 0x00, 0x00, 0x2b, 0x00, 0x0f, 0x3e, 0x00,
    0x03, 0x42, 0x61, 0x02, 0x26, 0x7c, 0x00, 0x32, 0x7c, 0x81,
    0x1d, 0x42, 0x00, 0x18, 0x32, 0x00, 0x00, 0x26, 0x00, 0x3b,
    0x3b, 0x61, 0x01, 0x1f, 0x7c, 0x00, 0x2b, 0x7c, 0x40, 0x2b,
    0x00, 0x00, 0x1f, 0x00, 0x19, 0x3b, 0x00, 0x1d, 0x1f, 0x73,
    0x00, 0x2b, 0x73, 0x00, 0x43, 0x61, 0x20, 0x43, 0x00, 0x1d,
    0x43, 0x67, 0x03, 0x2b, 0x00, 0x00, 0x1f, 0x00, 0x18, 0x43,
    0x00, 0x1f, 0x43, 0x61, 0x02, 0x1f, 0x69, 0x00, 0x2b, 0x69,
    0x42, 0x43, 0x00, 0x02, 0x2b, 0x00, 0x00, 0x1f, 0x00, 0x34,
    0x1f, 0x73, 0x00, 0x2b, 0x73, 0x01, 0x43, 0x61, 0x30, 0x43,
    0x00, 0x18, 0x2b, 0x00, 0x00, 0x1f, 0x00, 0x2e, 0x1f, 0x69,
    0x00, 0x2b, 0x69, 0x02, 0x3e, 0x61, 0x49, 0x3e, 0x00, 0x01,
    0x2b, 0x00, 0x00, 0x1f, 0x00, 0x0f, 0x3b, 0x61, 0x17, 0x3b,
    0x00, 0x05, 0x1f, 0x69, 0x00, 0x2b, 0x69, 0x01, 0x43, 0x61,
    0x16, 0x43, 0x00, 0x11, 0x43, 0x61, 0x10, 0x43, 0x00, 0x0e,
    0x2b, 0x00, 0x00, 0x1f, 0x00, 0x0c, 0x43, 0x67, 0x12, 0x43,
    0x00, 0x16, 0x1f, 0x73, 0x00, 0x2b, 0x73, 0x00, 0x3e, 0x61,
    0x48, 0x2b, 0x00, 0x00, 0x1f, 0x00, 0x03, 0x3e, 0x00, 0x2d,
    0x1f, 0x69, 0x00, 0x2b, 0x69, 0x00, 0x3b, 0x67, 0x38, 0x3b,
    0x00, 0x08, 0x2b, 0x00, 0x00, 0x1f, 0x00, 0x37, 0x26, 0x69,
    0x00, 0x32, 0x69, 0x01, 0x39, 0x67, 0x29, 0x32, 0x00, 0x00,
    0x26, 0x00, 0x14, 0x24, 0x7c, 0x00, 0x30, 0x7c, 0x1e, 0x39,
    0x00, 0x06, 0x30, 0x00, 0x00, 0x24, 0x00, 0x16, 0x23, 0x73,
    0x00, 0x2f, 0x73, 0x01, 0x3b, 0x6e, 0x22, 0x2f, 0x00, 0x00,
    0x23, 0x00, 0x17, 0x3b, 0x00, 0x02, 0x21, 0x69, 0x00, 0x2d,
    0x69, 0x20, 0x2d, 0x00, 0x00, 0x21, 0x00, 0x1c, 0x3e, 0x6e,
    0x01, 0x1f, 0x7c, 0x00, 0x2b, 0x7c, 0x47, 0x3e, 0x00, 0x07,
    0x2b, 0x00, 0x00, 0x1f, 0x00, 0x0b, 0x3b, 0x61, 0x19, 0x3b,
    0x00, 0x04, 0x43, 0x59, 0x01, 0x1f, 0x60, 0x00, 0x2b, 0x60,
    0x17, 0x43, 0x00, 0x10, 0x43, 0x44, 0x09, 0x43, 0x00, 0x12,
    0x2b, 0x00, 0x00, 0x1f, 0x00, 0x0d, 0x43, 0x61, 0x14, 0x43,
    0x00, 0x15, 0x1f, 0x69, 0x00, 0x2b, 0x69, 0x00, 0x3e, 0x6e,
    0x42, 0x2b, 0x00, 0x00, 0x1f, 0x00, 0x07, 0x3e, 0x00, 0x2e,
    0x3b, 0x75, 0x02, 0x1f, 0x69, 0x00, 0x2b, 0x69, 0x37, 0x3b,
    0x00, 0x01, 0x2b, 0x00, 0x00, 0x1f, 0x00, 0x40, 0x39, 0x61,
    0x01, 0x26, 0x69, 0x00, 0x32, 0x69, 0x24, 0x32, 0x00, 0x00,
    0x26, 0x00, 0x18, 0x24, 0x7c, 0x00, 0x30, 0x7c, 0x1e, 0x39,
    0x00, 0x06, 0x30, 0x00, 0x00, 0x24, 0x00, 0x15, 0x23, 0x60,
    0x00, 0x2f, 0x60, 0x02, 0x3b, 0x61, 0x24, 0x2f, 0x00, 0x00,
    0x23, 0x00, 0x17, 0x21, 0x73, 0x00, 0x2d, 0x73, 0x02, 0x3b,
    0x00, 0x25, 0x2d, 0x00, 0x00, 0x21, 0x00, 0x15, 0x26, 0x73,
    0x00, 0x32, 0x73, 0x01, 0x39, 0x67, 0x20, 0x32, 0x00, 0x00,
    0x26, 0x00, 0x1d, 0x24, 0x7c, 0x00, 0x30, 0x7c, 0x25, 0x30,
    0x00, 0x00, 0x24, 0x00, 0x03, 0x39, 0x00, 0x11, 0x23, 0x73,
    0x00, 0x2f, 0x73, 0x02, 0x3b, 0x55, 0x24, 0x2f, 0x00, 0x00,
    0x23, 0x00, 0x13, 0x3b, 0x00, 0x06, 0x21, 0x73, 0x00, 0x2d,
    0x73, 0x28, 0x2d, 0x00, 0x00, 0x21, 0x00, 0x11, 0x26, 0x73,
    0x00, 0x32, 0x73, 0x03, 0x39, 0x61, 0x21, 0x32, 0x00, 0x00,
    0x26, 0x00, 0x1b, 0x24, 0x69, 0x00, 0x30, 0x69, 0x23, 0x30,
    0x00, 0x00, 0x24, 0x00, 0x0c, 0x39, 0x00, 0x0a, 0x3b, 0x59,
    0x02, 0x23, 0x73, 0x00, 0x2f, 0x73, 0x23, 0x2f, 0x00, 0x00,
    0x23, 0x00, 0x15, 0x3b, 0x00, 0x02, 0x21, 0x69, 0x00, 0x2d,
    0x69, 0x20, 0x2d, 0x00, 0x00, 0x21, 0x00, 0x1f, 0x1f, 0x73,
    0x00, 0x2b, 0x73, 0x00, 0x3b, 0x67, 0x81, 0x16, 0x3b, 0x00,
    0x25, 0x2b, 0x00, 0x00, 0x1f, 0x00, 0x00, 0xff, 0x2f, 0x00,
    0x4d, 0x54, 0x72, 0x6b, 0x00, 0x00, 0x00, 0x9c, 0x00, 0xff,
    0x03, 0x08, 0x46, 0x20, 0x48, 0x6f, 0x72, 0x6e, 0x20, 0x32,
    0x81, 0x39, 0xbd, 0x00, 0x00, 0x01, 0x20, 0x00, 0x01, 0xcd,
    0x3c, 0x01, 0xbd, 0x0a, 0x3f, 0x34, 0x5b, 0x7b, 0x81, 0x72,
    0x9d, 0x43, 0x59, 0x34, 0x43, 0x00, 0x1f, 0x47, 0x62, 0x0f,
    0x47, 0x00, 0x16, 0x4a, 0x67, 0x15, 0x4a, 0x00, 0x25, 0x4a,
    0x6e, 0x16, 0x4a, 0x00, 0x27, 0x4c, 0x67, 0x4e, 0x4c, 0x00,
    0x2b, 0x4a, 0x67, 0x3d, 0x4a, 0x00, 0x38, 0x47, 0x66, 0x38,
    0x47, 0x00, 0x24, 0x43, 0x61, 0x11, 0x43, 0x00, 0x0c, 0x4a,
    0x6e, 0x11, 0x4a, 0x00, 0x17, 0x4a, 0x67, 0x10, 0x4a, 0x00,
    0x18, 0x4a, 0x6e, 0x11, 0x4a, 0x00, 0x18, 0x47, 0x78, 0x43,
    0x47, 0x00, 0x33, 0x43, 0x6e, 0x4a, 0x43, 0x00, 0x31, 0x3e,
    0x6e, 0x15, 0x3e, 0x00, 0x10, 0x3e, 0x67, 0x13, 0x3e, 0x00,
    0x15, 0x3e, 0x6e, 0x13, 0x3e, 0x00, 0x18, 0x3e, 0x6e, 0x14,
    0x3e, 0x00, 0x13, 0x3e, 0x6e, 0x12, 0x3e, 0x00, 0x15, 0x3e,
    0x75, 0x13, 0x3e, 0x00, 0x14, 0x43, 0x7e, 0x46, 0x43, 0x00,
    0x00, 0xff, 0x2f, 0x00, 0x4d, 0x54, 0x72, 0x6b, 0x00, 0x00,
    0x03, 0x3c, 0x00, 0xff, 0x03, 0x09, 0x54, 0x72, 0x75, 0x6d,
    0x70, 0x65, 0x74, 0x20, 0x32, 0x81, 0x43, 0xbf, 0x00, 0x00,
    0x01, 0x20, 0x00, 0x01, 0xcf, 0x38, 0x01, 0xbf, 0x0a, 0x40,
    0x2a, 0x5b, 0x7b, 0x81, 0x56, 0x47, 0x35, 0x0c, 0x4a, 0x2e,
    0x10, 0x9f, 0x43, 0x59, 0x17, 0xbf, 0x47, 0x33, 0x17, 0x47,
    0x31, 0x06, 0x9f, 0x43, 0x00, 0x23, 0x47, 0x62, 0x0f, 0x47,
    0x00, 0x12, 0x4a, 0x67, 0x15, 0x4a, 0x00, 0x25, 0x4a, 0x6e,
    0x16, 0x4a, 0x00, 0x27, 0x4c, 0x67, 0x4e, 0x4c, 0x00, 0x2b,
    0x4a, 0x67, 0x3d, 0x4a, 0x00, 0x38, 0x47, 0x66, 0x38, 0x47,
    0x00, 0x24, 0x43, 0x61, 0x11, 0x43, 0x00, 0x0c, 0x4a, 0x6e,
    0x11, 0x4a, 0x00, 0x17, 0x4a, 0x67, 0x10, 0x4a, 0x00, 0x18,
    0x4a, 0x6e, 0x11, 0x4a, 0x00, 0x18, 0x47, 0x78, 0x43, 0x47,
    0x00, 0x33, 0x43, 0x6e, 0x4a, 0x43, 0x00, 0x31, 0x3e, 0x6e,
    0x15, 0x3e, 0x00, 0x10, 0x3e, 0x67, 0x13, 0x3e, 0x00, 0x15,
    0x3e, 0x6e, 0x13, 0x3e, 0x00, 0x18, 0x3e, 0x6e, 0x14, 0x3e,
    0x00, 0x13, 0x3e, 0x6e, 0x12, 0x3e, 0x00, 0x15, 0x3e, 0x75,
    0x13, 0x3e, 0x00, 0x14, 0x43, 0x78, 0x46, 0x43, 0x00, 0x71,
    0x3e, 0x75, 0x19, 0x3e, 0x00, 0x22, 0x43, 0x75, 0x81, 0x11,
    0x43, 0x00, 0x22, 0x43, 0x6e, 0x12, 0x43, 0x00, 0x2c, 0x43,
    0x6e, 0x3d, 0x43, 0x00, 0x1a, 0x43, 0x75, 0x12, 0x43, 0x00,
    0x0c, 0x3e, 0x75, 0x2a, 0x3e, 0x00, 0x12, 0x40, 0x75, 0x11,
    0x40, 0x00, 0x0f, 0x42, 0x67, 0x10, 0x42, 0x00, 0x0c, 0x43,
    0x6e, 0x4c, 0x43, 0x00, 0x2c, 0x43, 0x75, 0x44, 0x43, 0x00,
    0x72, 0x47, 0x75, 0x18, 0x47, 0x00, 0x23, 0x43, 0x75, 0x2b,
    0x43, 0x00, 0x11, 0x45, 0x61, 0x13, 0x45, 0x00, 0x0d, 0x47,
    0x6e, 0x11, 0x47, 0x00, 0x0a, 0x4a, 0x75, 0x58, 0x4a, 0x00,
    0x21, 0x4a, 0x75, 0x45, 0x4a, 0x00, 0x32, 0x47, 0x75, 0x40,
    0x47, 0x00, 0x1c, 0x47, 0x6e, 0x15, 0x47, 0x00, 0x08, 0x43,
    0x75, 0x42, 0x43, 0x00, 0x18, 0x47, 0x75, 0x13, 0x47, 0x00,
    0x0a, 0x4a, 0x75, 0x3d, 0x4a, 0x00, 0x1e, 0x47, 0x75, 0x14,
    0x47, 0x00, 0x0a, 0x45, 0x75, 0x4f, 0x45, 0x00, 0x29, 0x45,
    0x75, 0x3c, 0x45, 0x00, 0x09, 0x4a, 0x59, 0x0d, 0x4a, 0x00,
    0x0d, 0x4a, 0x62, 0x0d, 0x4a, 0x00, 0x10, 0x4a, 0x68, 0x0e,
    0x4a, 0x00, 0x0d, 0x4a, 0x6a, 0x0f, 0x4a, 0x00, 0x0a, 0x4a,
    0x73, 0x0f, 0x4a, 0x00, 0x0c, 0x4a, 0x78, 0x0f, 0x4a, 0x00,
    0x16, 0x4c, 0x78, 0x53, 0x4c, 0x00, 0x26, 0x4a, 0x73, 0x58,
    0x4a, 0x00, 0x20, 0x45, 0x75, 0x5b, 0x45, 0x00, 0x1c, 0x47,
    0x78, 0x2f, 0x47, 0x00, 0x49, 0x4a, 0x75, 0x18, 0x4a, 0x00,
    0x23, 0x47, 0x75, 0x1f, 0x47, 0x00, 0x5c, 0x4a, 0x6e, 0x1b,
    0x4a, 0x00, 0x1e, 0x47, 0x78, 0x28, 0x47, 0x00, 0x15, 0x45,
    0x61, 0x13, 0x45, 0x00, 0x0b, 0x47, 0x53, 0x15, 0x47, 0x00,
    0x08, 0x43, 0x75, 0x6b, 0x43, 0x00, 0x10, 0x47, 0x75, 0x81,
    0x2b, 0x47, 0x00, 0x45, 0x3e, 0x46, 0x3b, 0x3e, 0x00, 0x1e,
    0x40, 0x4c, 0x15, 0x40, 0x00, 0x08, 0x43, 0x4e, 0x17, 0x43,
    0x00, 0x26, 0x43, 0x52, 0x15, 0x43, 0x00, 0x26, 0x47, 0x55,
    0x3d, 0x47, 0x00, 0x1d, 0x47, 0x5a, 0x14, 0x47, 0x00, 0x09,
    0x4a, 0x5c, 0x18, 0x4a, 0x00, 0x25, 0x4a, 0x60, 0x18, 0x4a,
    0x00, 0x24, 0x45, 0x78, 0x04, 0x27, 0x7e, 0x15, 0x45, 0x00,
    0x09, 0x27, 0x00, 0x1a, 0x45, 0x6e, 0x02, 0x25, 0x7e, 0x0f,
    0x45, 0x00, 0x0c, 0x45, 0x6e, 0x03, 0x25, 0x00, 0x10, 0x45,
    0x00, 0x0c, 0x40, 0x78, 0x03, 0x24, 0x7e, 0x1e, 0x24, 0x00,
    0x1e, 0x22, 0x7f, 0x1b, 0x40, 0x00, 0x03, 0x22, 0x00, 0x1b,
    0x45, 0x75, 0x02, 0x20, 0x7f, 0x1e, 0x20, 0x00, 0x1f, 0x1e,
    0x7f, 0x1e, 0x1e, 0x00, 0x1f, 0x1d, 0x7f, 0x17, 0x45, 0x00,
    0x07, 0x1d, 0x00, 0x81, 0x14, 0x4a, 0x70, 0x12, 0x4a, 0x00,
    0x0c, 0x4a, 0x6e, 0x10, 0x4a, 0x00, 0x0c, 0x4a, 0x6e, 0x52,
    0x4a, 0x00, 0x61, 0x4a, 0x6f, 0x13, 0x4a, 0x00, 0x0b, 0x4a,
    0x6f, 0x10, 0x4a, 0x00, 0x0e, 0x4a, 0x6f, 0x5a, 0x4a, 0x00,
    0x5c, 0x4a, 0x77, 0x11, 0x4a, 0x00, 0x0c, 0x4a, 0x78, 0x0f,
    0x4a, 0x00, 0x10, 0x4a, 0x78, 0x10, 0x4a, 0x00, 0x0d, 0x4a,
    0x78, 0x0f, 0x4a, 0x00, 0x11, 0x4a, 0x78, 0x10, 0x4a, 0x00,
    0x0c, 0x4a, 0x78, 0x0f, 0x4a, 0x00, 0x0f, 0x43, 0x78, 0x41,
    0x43, 0x00, 0x18, 0x47, 0x6e, 0x12, 0x47, 0x00, 0x0e, 0x4a,
    0x75, 0x19, 0x4a, 0x00, 0x24, 0x4a, 0x6e, 0x16, 0x4a, 0x00,
    0x26, 0x4c, 0x6e, 0x61, 0x4c, 0x00, 0x16, 0x4a, 0x6e, 0x31,
    0x4a, 0x00, 0x47, 0x47, 0x75, 0x3c, 0x47, 0x00, 0x1e, 0x43,
    0x67, 0x13, 0x43, 0x00, 0x0c, 0x4a, 0x6e, 0x13, 0x4a, 0x00,
    0x13, 0x4a, 0x67, 0x11, 0x4a, 0x00, 0x19, 0x4a, 0x6e, 0x14,
    0x4a, 0x00, 0x13, 0x47, 0x75, 0x4e, 0x47, 0x00, 0x2a, 0x43,
    0x67, 0x3b, 0x43, 0x00, 0x3d, 0x3e, 0x78, 0x56, 0x3e, 0x00,
    0x23, 0x43, 0x75, 0x35, 0x43, 0x00, 0x42, 0x47, 0x75, 0x39,
    0x47, 0x00, 0x20, 0x43, 0x67, 0x15, 0x43, 0x00, 0x09, 0x4a,
    0x75, 0x11, 0x4a, 0x00, 0x19, 0x4a, 0x75, 0x0f, 0x4a, 0x00,
    0x16, 0x4a, 0x6e, 0x13, 0x4a, 0x00, 0x16, 0x47, 0x78, 0x61,
    0x47, 0x00, 0x16, 0x43, 0x75, 0x2f, 0x43, 0x00, 0x4a, 0x3e,
    0x75, 0x1e, 0x3e, 0x00, 0x09, 0x3e, 0x75, 0x1e, 0x3e, 0x00,
    0x07, 0x3e, 0x75, 0x1e, 0x3e, 0x00, 0x0e, 0x43, 0x75, 0x3b,
    0x43, 0x00, 0x3d, 0x3e, 0x6e, 0x1b, 0x3e, 0x00, 0x09, 0x3e,
    0x6e, 0x1b, 0x3e, 0x00, 0x08, 0x3e, 0x6e, 0x1b, 0x3e, 0x00,
    0x15, 0x43, 0x78, 0x39, 0x43, 0x00, 0x40, 0x3e, 0x75, 0x1b,
    0x3e, 0x00, 0x09, 0x3e, 0x75, 0x1b, 0x3e, 0x00, 0x06, 0x3e,
    0x75, 0x1b, 0x3e, 0x00, 0x18, 0x43, 0x6e, 0x2d, 0x43, 0x00,
    0x4a, 0x43, 0x75, 0x78, 0x43, 0x00, 0x00, 0xff, 0x2f, 0x00,
    0x4d, 0x54, 0x72, 0x6b, 0x00, 0x00, 0x00, 0x1c, 0x00, 0xff,
    0x03, 0x14, 0x68, 0x74, 0x74, 0x70, 0x3a, 0x2f, 0x2f, 0x43,
    0x61, 0x72, 0x6c, 0x6f, 0x73, 0x2e, 0x63, 0x6f, 0x6d, 0x2e,
    0x68, 0x6b, 0x00, 0xff, 0x2f, 0x00,
};
